<?xml version="1.0" standalone="no"?>
<!DOCTYPE svg PUBLIC "-//W3C//DTD SVG 1.1//EN" "http://www.w3.org/Graphics/SVG/1.1/DTD/svg11.dtd" >
<svg xmlns="http://www.w3.org/2000/svg" xmlns:xlink="http://www.w3.org/1999/xlink" version="1.1">
<metadata>
Created by FontForge 20170731 at Tue Sep 15 21:57:50 2020
 By Aleksey,,,
Copyright (c) 1991, 1998 Adobe Systems Incorporated.  All Rights Reserved.Berthold Akzidenz-Grotesk is either a registered trademark or trademark of Berthold Types Limited in the United States and/or other countries.
</metadata>
<defs>
<font id="AkzidenzGroteskBE-XBdCnIt" horiz-adv-x="1024" >
  <font-face 
    font-family="Akzidenz Grotesk BE XBdCn"
    font-weight="800"
    font-style="italic"
    font-stretch="condensed"
    units-per-em="2048"
    panose-1="2 11 9 6 0 0 0 0 0 0"
    ascent="1536"
    descent="-512"
    x-height="1096"
    cap-height="1446"
    bbox="-207 -512 2339 1835"
    underline-thickness="102"
    underline-position="-409"
    slope="-13"
    unicode-range="U+0020-FB02"
  />
<missing-glyph horiz-adv-x="512" 
 />
    <glyph glyph-name=".notdef" horiz-adv-x="512" 
 />
    <glyph glyph-name=".null" horiz-adv-x="0" 
 />
    <glyph glyph-name="nonmarkingreturn" horiz-adv-x="682" 
 />
    <glyph glyph-name="space" unicode=" " horiz-adv-x="512" 
 />
    <glyph glyph-name="space" unicode="&#xa0;" horiz-adv-x="512" 
 />
    <glyph glyph-name="exclam" unicode="!" horiz-adv-x="598" 
d="M461 1446h303l-62 -262l-223 -715h-186l100 696zM127 0l72 311h303l-72 -311h-303z" />
    <glyph glyph-name="quotedbl" unicode="&#x22;" horiz-adv-x="811" 
d="M903 1370l-108 -534h-64l-113 512q-4 20 -4 49q0 65 47.5 101t106.5 36q32 0 61.5 -11t53.5 -42t24 -78q0 -13 -4 -33zM475 1370l-108 -534h-64l-113 512q-4 20 -4 49q0 65 47.5 101t106.5 36q32 0 61.5 -11t53.5 -42t24 -78q0 -13 -4 -33z" />
    <glyph glyph-name="numbersign" unicode="#" horiz-adv-x="1366" 
d="M1090 381l-54 -381h-256l54 381h-203l-53 -381h-252l49 381h-193v252h230l26 196h-205v254h240l51 363h256l-53 -363h205l49 363h256l-49 -363h186v-254h-221l-27 -196h201v-252h-237zM666 633h202l29 196h-203z" />
    <glyph glyph-name="dollar" unicode="$" horiz-adv-x="1067" 
d="M731 1470l41 187h162l-45 -195q33 -5 51 -8.5t53 -13.5t56 -21t48.5 -31t43 -45t26.5 -61.5t11 -81.5q0 -61 -37 -213h-332q2 9 11 47t14.5 67t5.5 46q0 35 -23.5 56.5t-66.5 21.5q-53 0 -80 -27q-27 -25 -43.5 -83.5t-16.5 -96.5q0 -36 13.5 -58t46.5 -49q9 -8 19 -16
t43.5 -34t74.5 -58q57 -44 82.5 -64t60.5 -51t48 -48.5t29 -44t20 -51t4 -55.5q0 -72 -33 -187t-80 -179q-34 -46 -80.5 -77t-106 -45.5t-100 -20t-104.5 -9.5l-51 -211h-162l51 220q-31 5 -50 9t-55 15t-59.5 23.5t-53 34.5t-47 49t-30 66.5t-12.5 86.5q0 72 41 236h350
q-39 -154 -39 -189q0 -94 107 -94q80 0 112 64q18 31 28.5 86t10.5 82q0 38 -28.5 66.5t-145.5 117.5q-64 48 -91.5 68.5t-64 52t-48.5 48t-26 43t-17 51.5t-3 60q0 146 94 334q25 46 51.5 76.5t55 49.5t71 30t84.5 16t111 8z" />
    <glyph glyph-name="percent" unicode="%" horiz-adv-x="1622" 
d="M825 1147l-75 -318q-10 -39 -15 -59.5t-15 -53t-18.5 -49.5t-22.5 -42t-29 -37.5t-36 -28t-46 -22.5t-57.5 -12t-70.5 -5q-129 0 -195.5 49t-66.5 144q0 60 27 166l67 295q9 38 14.5 58t16 52.5t22 50.5t29 42t40 37t52.5 26t69 18.5t87 5.5q116 0 178 -50t62 -144
q0 -40 -17 -123zM483 1196l-88 -373q-16 -67 -16 -88q0 -51 65 -51q39 0 56.5 18t29.5 66l95 408q14 66 14 77q0 52 -53 52t-70 -20.5t-33 -88.5zM479 0l713 1446h162l-713 -1446h-162zM1640 604l-75 -315q-34 -138 -60 -187q-49 -93 -159 -114q-40 -8 -91 -8
q-262 0 -262 192q0 60 27 166l67 293q7 30 11 46t12 43.5t15.5 42.5t19 37.5t24 35t30.5 28.5t39.5 25t48 17.5t59.5 12t71 3.5q115 0 177.5 -50.5t62.5 -144.5q0 -36 -17 -123zM1298 653l-88 -372q-16 -61 -16 -86q0 -52 66 -52q39 0 56.5 18t29.5 66l94 406q14 67 14 80
q0 49 -53 49t-70 -20.5t-33 -88.5z" />
    <glyph glyph-name="ampersand" unicode="&#x26;" horiz-adv-x="1366" 
d="M1321 207l-66 -236q-12 0 -32.5 -1t-30.5 -1q-194 0 -318 107q-67 -32 -106 -48t-109.5 -32t-142.5 -16q-187 0 -306.5 95.5t-119.5 264.5q0 50 10.5 96.5t31.5 85.5t43 71.5t55.5 62.5t58.5 50.5t63 43.5t56.5 33.5t50.5 27.5q-29 149 -29 213q0 79 18 143.5t46.5 107
t68.5 74.5t78 49t81.5 27.5t72.5 13.5t57 3q155 0 241.5 -74t86.5 -197q0 -47 -13.5 -92t-33 -79.5t-54 -70.5t-61.5 -59.5t-71 -52t-69 -43t-67 -37.5q31 -102 150 -288q42 62 65.5 127.5t40.5 177.5h285q-19 -104 -46.5 -186.5t-63.5 -141t-60 -88.5t-62 -70
q24 -20 41.5 -31t60.5 -21.5t99 -8.5zM743 946q75 44 117.5 95.5t42.5 123.5q0 36 -18 57t-45 21q-43 0 -76 -44.5t-33 -129.5q0 -41 12 -123zM541 578q-117 -106 -117 -216q0 -70 46.5 -103.5t123.5 -33.5q54 0 125 27q-65 94 -100 158t-78 168z" />
    <glyph glyph-name="quotesingle" unicode="'" horiz-adv-x="425" 
d="M494 1370l-109 -534h-63l-113 512q-4 20 -4 49q0 65 47 101t106 36q32 0 62 -11t54 -42t24 -78q0 -13 -4 -33z" />
    <glyph glyph-name="parenleft" unicode="(" horiz-adv-x="724" 
d="M158 172l219 954q15 63 36 112t45 82.5t57 57.5t64 37.5t74.5 21t80 9.5t87.5 2q44 0 150 -4l-29 -127q-56 1 -90.5 -2t-63.5 -12t-46.5 -30t-31 -51.5t-24.5 -80.5l-283 -1215q-16 -78 -16 -116q0 -34 17.5 -55.5t45.5 -28.5t64 -9.5t74 0.5l-31 -131q-36 -2 -74.5 0
t-76.5 3.5t-74.5 10t-69 21t-60 35.5t-47.5 52.5t-31 73.5t-11 99q0 91 45 291z" />
    <glyph glyph-name="parenright" unicode=")" horiz-adv-x="724" 
d="M694 862l-219 -954q-15 -63 -36 -112t-45 -82.5t-57 -57.5t-64 -37.5t-74.5 -21t-80 -9.5t-87.5 -2q-44 0 -150 4l29 127q70 -2 109 3t70 24.5t47 53.5t30 96l283 1214q16 78 16 117q0 34 -17.5 55.5t-45.5 28t-64 9t-74 -0.5l31 131q36 2 74.5 0t76.5 -3.5t74.5 -10
t69 -21t60 -35.5t47.5 -52.5t31 -73.5t11 -99q0 -91 -45 -291z" />
    <glyph glyph-name="asterisk" unicode="*" horiz-adv-x="894" 
d="M571 1253l117 215h25l82 -241l241 -45q0 -13 4 -25l-219 -133l35 -252q-2 -1 -10 -5.5t-10 -6.5l-205 162l-228 -111q-9 9 -18 12l92 242l-170 188q1 2 3 7.5t3 7.5z" />
    <glyph glyph-name="plus" unicode="+" horiz-adv-x="1366" 
d="M891 467v-467h-260v467h-469v260h469v467h260v-467h465v-260h-465z" />
    <glyph glyph-name="comma" unicode="," horiz-adv-x="512" 
d="M49 0l72 313h307l-74 -313l-248 -315h-131l187 315h-113z" />
    <glyph glyph-name="hyphen" unicode="-" horiz-adv-x="681" 
d="M143 604l54 236h553l-54 -236h-553z" />
    <glyph glyph-name="hyphen" unicode="&#xad;" horiz-adv-x="681" 
d="M143 604l54 236h553l-54 -236h-553z" />
    <glyph glyph-name="period" unicode="." horiz-adv-x="512" 
d="M45 0l72 313h305l-72 -313h-305z" />
    <glyph glyph-name="slash" unicode="/" horiz-adv-x="598" 
d="M14 0l539 1446h244l-545 -1446h-238z" />
    <glyph glyph-name="zero" unicode="0" horiz-adv-x="1067" 
d="M174 565l119 514q51 219 143 295q64 54 158 76.5t178 22.5q58 0 109.5 -8t103 -29.5t88 -55t59.5 -88t23 -125.5q0 -88 -35 -237l-112 -494q-16 -70 -25.5 -106.5t-30 -94.5t-41.5 -88.5t-56.5 -69t-79 -57t-106 -32t-139.5 -13.5q-78 0 -163.5 19.5t-141.5 62.5
q-96 76 -96 217q0 100 45 291zM680 393l158 686q8 27 8 62q0 90 -101 90q-37 0 -62 -12t-40 -39t-22.5 -49.5t-16.5 -65.5l-153 -668q-13 -47 -13 -82q0 -26 10 -45t22 -27.5t29 -13.5t25 -5.5t17 -0.5q34 0 58 12.5t39.5 39t24 52t17.5 66.5z" />
    <glyph glyph-name="one" unicode="1" horiz-adv-x="1067" 
d="M397 963l68 294q73 11 125.5 29t86.5 45t54 52t41 63h268l-333 -1446h-316l246 1061q-61 -37 -103.5 -54.5t-136.5 -43.5z" />
    <glyph glyph-name="two" unicode="2" horiz-adv-x="1067" 
d="M559 918h-326q50 195 62 241q11 36 17.5 56t24.5 58t37.5 61t55.5 52.5t79.5 46t107.5 28.5t141 12q165 0 268 -54q25 -14 43.5 -28t42.5 -42t37.5 -72.5t13.5 -100.5q0 -96 -55 -293q-19 -58 -40.5 -99.5t-49.5 -71.5t-49 -46.5t-60 -42.5q-22 -16 -155.5 -101.5
t-155.5 -101.5q-71 -52 -96 -84t-41 -76h549l-60 -260h-913q16 83 29.5 142.5t33 115.5t36.5 93.5t48.5 78.5t59 68.5t78 66.5t96 69t121.5 79q189 119 223 166q26 34 47.5 119t21.5 135q0 98 -98 98q-26 0 -43 -4t-32.5 -19.5t-26 -33.5t-23 -58.5t-22.5 -81.5t-27 -116z
" />
    <glyph glyph-name="three" unicode="3" horiz-adv-x="1067" 
d="M582 999h-318q43 190 74 267.5t94 124.5q112 84 324 84q57 0 110 -8.5t104.5 -28.5t89.5 -51t61.5 -79.5t23.5 -109.5q0 -126 -53 -274q-15 -43 -37 -74t-42 -47.5t-49.5 -26.5t-46.5 -13t-45 -5q21 -4 35 -7t40 -15t42 -28t28.5 -47t12.5 -71q0 -14 -8 -68t-24.5 -133
t-49.5 -161.5t-74 -129.5q-105 -123 -368 -123q-159 0 -258 56q-135 75 -135 245q0 67 32 211h318q-35 -138 -35 -192q0 -30 12 -50.5t31 -28.5t31.5 -10.5t23.5 -2.5q95 0 125 94q12 38 31.5 130t19.5 126q0 47 -29.5 63.5t-107.5 16.5h-102l57 244h117q29 0 44 1t38 6
t38.5 18t26.5 34q13 26 30 102.5t17 114.5q0 35 -14 53q-25 33 -78 33q-33 0 -55.5 -9t-37.5 -26.5t-25.5 -46t-19 -65t-18.5 -86.5q-1 -4 -1 -7z" />
    <glyph glyph-name="four" unicode="4" horiz-adv-x="1067" 
d="M104 551l635 897h424l-209 -905h136l-54 -232h-135l-72 -311h-317l74 311h-537zM641 551l86 362q18 76 76 283q-10 -25 -81 -132.5t-106 -158.5l-243 -354h268z" />
    <glyph glyph-name="five" unicode="5" horiz-adv-x="1067" 
d="M225 668l201 780h780l-57 -250h-479l-90 -315q20 21 36 34.5t45 32t67.5 28t84.5 9.5q123 0 188.5 -70.5t65.5 -195.5q0 -95 -35 -252t-78 -252q-7 -16 -11 -24.5t-16.5 -30t-24 -35.5t-32 -35.5t-42.5 -36t-54.5 -31t-68 -26.5t-83 -16.5t-100.5 -6.5q-192 0 -299 84
q-13 9 -25 21.5t-29.5 38t-28.5 66.5t-11 91q0 54 27 191h319q-26 -98 -26 -145q0 -44 27.5 -71.5t72.5 -27.5q29 0 51 10t35.5 23.5t25.5 44.5t18 54t17 71q47 193 47 248q0 38 -10 51q-9 22 -32.5 35.5t-55.5 13.5q-92 0 -115 -106h-305z" />
    <glyph glyph-name="six" unicode="6" horiz-adv-x="1067" 
d="M178 537l113 489q11 46 19 77t22 72.5t28 69.5t35.5 61.5t46 55.5t59 44.5t74.5 35t92 20.5t113 8q53 0 103.5 -7.5t102.5 -26.5t91 -49t63.5 -78.5t24.5 -110.5q0 -53 -26 -172h-305q24 93 24 115q0 43 -29 63.5t-67 20.5q-31 0 -54 -10.5t-37 -31t-20 -34.5t-14 -37
q-8 -26 -20 -70.5t-30.5 -115t-31.5 -117.5q20 20 34.5 31.5t43 29t67 26.5t86.5 9q21 0 43 -3t54 -11t59.5 -26t52.5 -44.5t39.5 -71t14.5 -100.5q0 -82 -37 -227.5t-62 -204.5q-15 -35 -27 -57t-45.5 -60.5t-74 -62t-111.5 -42t-160 -18.5q-143 0 -239 48
q-154 78 -154 262q0 85 39 250zM629 686q-53 0 -81 -33.5t-46 -87.5q-13 -36 -33 -125t-20 -125q0 -94 98 -94q38 0 64 15.5t36.5 33t20.5 45.5q15 42 40 146t25 141q0 29 -13 48t-34 26t-32.5 8.5t-24.5 1.5z" />
    <glyph glyph-name="seven" unicode="7" horiz-adv-x="1067" 
d="M238 1006l102 440h911l-57 -248q-70 -96 -106.5 -148.5t-104 -162t-127.5 -225.5q-73 -143 -125 -274t-71.5 -197t-53.5 -191h-366q54 157 98 263.5t118 252t182.5 311t264.5 375.5l-336 -4l-45 -192h-284z" />
    <glyph glyph-name="eight" unicode="8" horiz-adv-x="1067" 
d="M909 768q1 -1 8 -3.5t15.5 -5.5t13.5 -7q86 -48 86 -179q0 -59 -31.5 -188t-58.5 -190q-21 -44 -48 -79t-71.5 -69t-113.5 -53t-158 -19q-58 0 -109.5 6.5t-111 27t-102 54.5t-71 94.5t-28.5 141.5q0 71 21.5 161.5t33.5 123.5q22 66 49 109.5t61.5 66.5t59 32t66.5 19
q-125 44 -125 188q0 71 33.5 183t91.5 174q106 114 336 114q175 0 278 -69q119 -80 119 -234q0 -23 -3.5 -57t-16 -89t-33.5 -102t-60.5 -88t-91.5 -55q-24 -8 -39 -8zM739 1227q-27 0 -46.5 -8t-32.5 -24.5t-19.5 -30.5t-15.5 -38q-35 -117 -35 -170q0 -46 30.5 -70
t79.5 -24q61 0 95 49q21 32 37 111t16 117q0 88 -109 88zM604 659q-30 0 -51.5 -10.5t-34 -31t-18 -34.5t-11.5 -38q-51 -186 -51 -236q0 -37 17 -59q25 -39 86 -39q26 0 47.5 9t33.5 19.5t22.5 29t13.5 27t8 23.5q51 200 51 254q0 86 -113 86z" />
    <glyph glyph-name="nine" unicode="9" horiz-adv-x="1067" 
d="M1133 1008l-134 -572q-42 -182 -83 -259t-107 -120q-119 -82 -295 -82q-47 0 -94.5 6.5t-102 25t-96 47.5t-69 78.5t-27.5 113.5q0 44 25 176h307q-8 -25 -12.5 -42t-9.5 -43t-2 -43.5t11 -35t28.5 -26.5t51.5 -9q58 0 86 32t47 101q5 17 21 76t34 129.5t21 79.5
q-15 -18 -28.5 -29.5t-41 -30t-68.5 -28.5t-91 -10q-23 0 -48.5 3t-66.5 18t-72 40t-54 74.5t-23 116.5q0 58 24 176q20 91 34 141t40 118t58.5 104t81.5 72.5t119 51.5t161 15q148 0 252 -58q19 -9 37 -22.5t44.5 -42t43 -76.5t16.5 -109q0 -71 -18 -157zM735 1227
q-26 0 -46.5 -8.5t-32.5 -20t-21.5 -30t-13.5 -31t-9 -31.5q-16 -48 -36.5 -136.5t-20.5 -119.5t12.5 -51.5t33 -27.5t31 -9t21.5 -2q88 0 123 94q21 53 43.5 149t22.5 125q0 43 -25.5 71t-81.5 28z" />
    <glyph glyph-name="colon" unicode=":" horiz-adv-x="598" 
d="M127 0l72 313h305l-72 -313h-305zM311 797l72 313h307l-72 -313h-307z" />
    <glyph glyph-name="semicolon" unicode=";" horiz-adv-x="598" 
d="M317 797l72 313h309l-73 -313h-308zM133 0l72 313h309l-72 -313l-247 -317h-134l187 317h-115z" />
    <glyph glyph-name="less" unicode="&#x3c;" horiz-adv-x="1366" 
d="M1442 279v-285l-1366 598v254l1366 606v-285l-1002 -448z" />
    <glyph glyph-name="equal" unicode="=" horiz-adv-x="1366" 
d="M1446 514v-260h-1366v260h1366zM1446 940v-260h-1366v260h1366z" />
    <glyph glyph-name="greater" unicode="&#x3e;" horiz-adv-x="1366" 
d="M1497 592l-1366 -598v285l1002 440l-1002 448v285l1366 -606v-254z" />
    <glyph glyph-name="question" unicode="?" horiz-adv-x="937" 
d="M592 1036h-299q44 188 65 246t64 100q98 93 328 93q360 0 360 -261q0 -96 -45 -219q-22 -59 -59.5 -95.5t-147.5 -111.5q-61 -42 -86.5 -59.5t-57 -45.5t-39.5 -39t-22 -43t-18 -53.5t-14 -74.5h-308q41 183 63 235t85 105q11 9 137 94t147 109q28 31 44 79t16 89
q0 34 -20 55t-56 21q-61 0 -81.5 -36.5t-52.5 -175.5zM205 0l71 313h308l-74 -313h-305z" />
    <glyph glyph-name="at" unicode="@" horiz-adv-x="1835" 
d="M1671 207l96 -127q-55 -51 -100 -88.5t-121.5 -87t-150.5 -81.5t-176.5 -54.5t-210.5 -22.5q-69 0 -140.5 11t-150 36.5t-149.5 63.5t-136 97.5t-112 133.5t-75 175t-28 218q0 200 73.5 380.5t199 311.5t300.5 208t369 77q281 0 445.5 -167t164.5 -429
q0 -184 -67.5 -352.5t-181 -271.5t-238.5 -103q-157 0 -184 141q-113 -139 -258 -139q-125 0 -205 91.5t-80 250.5q0 110 34 217t91.5 190.5t141.5 135t177 51.5q39 0 73 -10t54 -20.5t42 -32.5t28 -30t21 -30l18 80h186l-69 -325q-56 -286 -56 -334q0 -62 39 -62
q35 0 80 45t85.5 117.5t68.5 175.5t28 207q0 95 -27 171.5t-71 126t-104 83t-123 47.5t-131 14q-145 0 -283 -64.5t-242.5 -172t-168.5 -259t-64 -315.5q0 -130 41 -233t105 -166t148.5 -104.5t165.5 -57.5t163 -16q189 0 350.5 76t314.5 223zM1149 717q0 73 -37 122.5
t-102 49.5q-54 0 -101 -38t-77 -97t-47 -127t-17 -131q0 -49 13 -85.5t29 -53t38 -26.5t31.5 -11t17.5 -1q94 0 173 123.5t79 274.5z" />
    <glyph glyph-name="A" unicode="A" horiz-adv-x="1110" 
d="M-27 0l621 1446h563l-104 -1446h-344l30 322h-268l-123 -322h-375zM762 569l65 744l-262 -744h197z" />
    <glyph glyph-name="B" unicode="B" horiz-adv-x="1110" 
d="M43 0l332 1446h416q45 0 69.5 -0.5t67.5 -2.5t68.5 -6t62 -12t58 -19.5t46.5 -29.5t38.5 -40.5t22.5 -54t9 -69.5q0 -53 -16.5 -133.5t-30.5 -124.5q-29 -86 -82 -123.5t-172 -56.5q26 -7 43.5 -12.5t45.5 -20t45 -32.5t30.5 -49t13.5 -70q0 -54 -35 -207.5t-65 -218.5
q-41 -90 -127.5 -127t-225.5 -37h-614zM784 1186h-116l-74 -316h125q68 0 103.5 22t51.5 89l23 96q4 24 4 37q0 21 -7.5 35t-16.5 21.5t-27.5 11t-30.5 4t-35 0.5zM674 625h-137l-84 -371h151q37 0 61 8.5t38.5 29t21 39.5t14.5 56l29 123q6 18 6 45q0 70 -100 70z" />
    <glyph glyph-name="C" unicode="C" horiz-adv-x="1067" 
d="M1196 1075l-43 -178h-336l39 170q6 21 6 47q0 92 -108 92q-39 0 -64 -13.5t-34 -28.5t-19 -44l-172 -741q-12 -50 -12 -76q0 -33 20 -52.5t39.5 -23.5t40.5 -4q92 0 123 90q27 75 59 232h359l-52 -209q-25 -104 -56 -168t-88 -111t-143.5 -66.5t-219.5 -19.5
q-156 0 -248 37q-32 13 -60.5 31t-59 47.5t-49 74t-18.5 97.5q0 68 33 203l139 608q31 138 70.5 208t91.5 109q112 84 348 84q171 0 271 -43q155 -69 155 -249q0 -48 -12 -103z" />
    <glyph glyph-name="D" unicode="D" horiz-adv-x="1110" 
d="M45 0l334 1448h405q80 0 124 -1.5t106.5 -8.5t95.5 -22.5t67.5 -42t49 -69.5t14.5 -102t-16 -137l-164 -713q-16 -71 -30.5 -117.5t-36 -89.5t-48.5 -67.5t-67 -43.5t-92.5 -26.5t-124.5 -7.5h-617zM782 1200h-110l-221 -958q124 0 153 4q17 2 28.5 6t30 16.5t33.5 41
t25 71.5l160 702q4 24 4 37q0 47 -26.5 63.5t-76.5 16.5z" />
    <glyph glyph-name="E" unicode="E" horiz-adv-x="894" 
d="M41 0l334 1446h727l-58 -250h-374l-76 -328h356l-55 -245h-358l-84 -369h409l-57 -254h-764z" />
    <glyph glyph-name="F" unicode="F" horiz-adv-x="854" 
d="M379 1446h725l-55 -246h-379l-76 -330h364l-57 -247h-364l-144 -623h-348z" />
    <glyph glyph-name="G" unicode="G" horiz-adv-x="1110" 
d="M1182 1087l-35 -151h-336l35 147q4 24 4 39q0 27 -9.5 45.5t-25.5 26.5t-29.5 11t-27.5 3q-66 0 -99 -40.5t-49 -110.5l-153 -664q-8 -46 -8 -67q0 -37 14 -58q26 -41 92 -41q28 0 51 10.5t36 23t24 34t15 33.5t9 32q3 10 41 158h-141l53 234h473l-172 -752h-334l25 104
q1 7 4 19l4 16q-28 -38 -50 -62t-57.5 -50.5t-83.5 -39t-110 -12.5q-118 0 -186 65t-68 191q0 89 53 322q18 73 57.5 236.5t59.5 246.5q16 66 25.5 101.5t30 90t42 84t59 66t83.5 54t112.5 30.5t149.5 13q142 0 246 -37q103 -39 147.5 -105t44.5 -133q0 -43 -16 -113z" />
    <glyph glyph-name="H" unicode="H" horiz-adv-x="1150" 
d="M377 1448h352l-135 -590h240l135 590h352l-336 -1448h-350l141 608h-239l-142 -608h-352z" />
    <glyph glyph-name="I" unicode="I" horiz-adv-x="555" 
d="M43 0l334 1446h350l-334 -1446h-350z" />
    <glyph glyph-name="J" unicode="J" horiz-adv-x="768" 
d="M369 430l227 1016h352l-243 -1055q-14 -62 -25.5 -102.5t-30 -85.5t-40 -73t-54.5 -55.5t-75.5 -42t-99.5 -23.5t-130 -9h-215l59 260h99q83 0 119.5 39t56.5 131z" />
    <glyph glyph-name="K" unicode="K" horiz-adv-x="1110" 
d="M575 807l406 639h373l-467 -670l178 -776h-358l-138 776l-178 -776h-348l334 1446h348z" />
    <glyph glyph-name="L" unicode="L" horiz-adv-x="811" 
d="M379 1446h350l-276 -1200h370l-57 -246h-721z" />
    <glyph glyph-name="M" unicode="M" horiz-adv-x="1579" 
d="M45 0l334 1446h483l-14 -408q0 -17 -3 -126t-3 -130q-2 -36 -21 -356q3 7 41.5 97.5t61.5 144.5q57 135 94 223l246 555h481l-334 -1446h-326l273 1073l-481 -1073h-293l10 1073l-223 -1073h-326z" />
    <glyph glyph-name="N" unicode="N" horiz-adv-x="1150" 
d="M379 1446h340q69 -531 104 -897q41 260 88 479q35 164 88 418h322l-336 -1446h-336l-51 416q-34 276 -51 475l-176 -891h-326z" />
    <glyph glyph-name="O" unicode="O" horiz-adv-x="1110" 
d="M139 475l133 559q11 48 19 78t22 72t28 68.5t36 60t47.5 54t61.5 42.5t79 34t98.5 19.5t120.5 7.5q219 0 326 -75q113 -81 113 -238q0 -96 -54 -317l-114 -488q-35 -145 -92 -226.5t-155 -119t-259 -37.5q-63 0 -119 7.5t-115.5 29.5t-102 56.5t-70 94.5t-27.5 138
q0 72 24 180zM662 1122q-28 -94 -114.5 -433t-86.5 -374q0 -84 106 -84q67 0 96.5 44.5t57.5 154.5q51 198 131 543q31 121 31 145q0 43 -25.5 67.5t-75.5 24.5q-32 0 -54.5 -7.5t-35 -22.5t-18.5 -27t-12 -31z" />
    <glyph glyph-name="P" unicode="P" horiz-adv-x="1067" 
d="M45 0l334 1446h543q26 0 44.5 -0.5t53.5 -5t59.5 -13t55 -25.5t49.5 -40.5t32 -60.5t13 -84q0 -55 -15 -117l-47 -211q-21 -92 -46 -148.5t-68 -95t-103.5 -53t-154.5 -14.5h-267l-133 -578h-350zM797 1196h-125l-84 -356h137q27 0 44 3.5t38 22t35 54.5
q10 27 27.5 101.5t17.5 104.5q0 70 -90 70z" />
    <glyph glyph-name="Q" unicode="Q" horiz-adv-x="1110" 
d="M1178 895l-115 -496q-25 -108 -51.5 -176t-71.5 -123t-112 -83t-166 -37q-33 -105 -33 -130q0 -37 30 -50t91 -13q28 0 90 4l-64 -209q-244 0 -297 6q-86 10 -127 54t-43 108q0 25 9 58.5t53 181.5q-28 8 -41.5 12.5t-44.5 18t-49 27t-43.5 38t-39 53t-24 70.5t-10.5 92
q0 68 20 158l127 565q15 67 24 101.5t29 91t42.5 86.5t61 68.5t87 57t119 32.5t157.5 14q76 0 163 -16t149 -54q121 -74 121 -240q0 -88 -41 -270zM715 410l151 649q11 63 11 67q0 42 -27 66.5t-80 24.5q-33 0 -55.5 -10t-36 -33t-20 -42t-15.5 -55l-174 -694q-8 -40 -8 -59
q0 -91 108 -91q37 0 63 13.5t42 43t23.5 53.5t17.5 67z" />
    <glyph glyph-name="R" unicode="R" horiz-adv-x="1110" 
d="M43 0l334 1446h422q46 0 69.5 -0.5t66 -2.5t66 -6t58.5 -12t54.5 -19.5t43 -29.5t35.5 -41t20.5 -54.5t8.5 -70.5q0 -58 -20.5 -152t-47.5 -149q-38 -82 -101 -118t-157 -50q192 -35 192 -168q0 -22 -14 -104l-45 -219q-27 -140 -27 -158q0 -22 6.5 -38t19 -26t19 -13.5
t19.5 -8.5v-12l-303 10q-105 3 -105 90q0 19 15 90l53 258q14 71 14 88q0 26 -9 42.5t-26 23.5t-31.5 9.5t-35.5 2.5h-100l-142 -608h-352zM672 1196l-78 -332h96q36 1 51.5 2.5t37.5 8.5t35.5 22.5t25.5 42.5q13 29 28 101.5t15 91.5t-6.5 32t-19.5 18.5t-21 7.5t-21 3
q-20 2 -143 2z" />
    <glyph glyph-name="S" unicode="S" horiz-adv-x="1067" 
d="M121 498h348q-39 -149 -39 -187q0 -33 13 -54t34 -28.5t33 -9.5t25 -2q70 0 104 45q20 26 34.5 82.5t14.5 91.5t-16.5 60.5t-59.5 60.5q-2 2 -137 105q-50 37 -72 54t-52.5 44t-42 43t-24.5 41t-16.5 50.5t-3.5 59.5q0 82 41.5 207t87.5 187q20 25 36.5 40t55.5 37.5
t104.5 33.5t155.5 11q81 0 145.5 -8t119.5 -27.5t92 -50t57.5 -77t20.5 -107.5q0 -62 -37 -213h-332q31 133 31 156q0 45 -28.5 63.5t-63.5 18.5q-72 0 -97 -49q-19 -27 -31 -79t-12 -81q0 -47 23.5 -73.5t120.5 -98.5q138 -104 197 -159t79.5 -97.5t20.5 -106.5
q0 -33 -11 -86q-20 -113 -52.5 -187.5t-91 -129t-148.5 -79t-220 -24.5q-450 0 -450 283q0 15 1 31t4 35.5l5 32.5t7.5 36.5t8 33t9 37.5t8.5 34z" />
    <glyph glyph-name="T" unicode="T" horiz-adv-x="854" 
d="M207 1196l59 250h856l-57 -250h-242l-276 -1196h-352l276 1196h-264z" />
    <glyph glyph-name="U" unicode="U" horiz-adv-x="1110" 
d="M158 600l200 848h349l-238 -1034q-12 -36 -12 -80q0 -43 28.5 -64.5t77.5 -21.5q36 0 61.5 13.5t42 41t25 50.5t17.5 61l237 1034h348l-239 -1034q-13 -56 -24 -94.5t-32 -88t-45 -83t-63 -68.5t-87.5 -55.5t-116 -34t-150.5 -13.5q-91 0 -166.5 17t-137 53t-95.5 99.5
t-32 148.5q3 95 52 305z" />
    <glyph glyph-name="V" unicode="V" 
d="M266 1446h336l-37 -549q-13 -215 -24.5 -328t-36.5 -278q84 269 106 323l308 832h376l-606 -1446h-487z" />
    <glyph glyph-name="W" unicode="W" horiz-adv-x="1662" 
d="M512 516l375 930h422l-68 -1108q48 215 96 360l246 748h350l-530 -1446h-438q12 300 20 549q5 223 33 530q-52 -164 -83.5 -248.5t-133.5 -328.5l-211 -502h-449l129 1446h344l-69 -498q-3 -22 -19 -135.5t-18 -130.5q-24 -172 -66 -365q30 92 70 199z" />
    <glyph glyph-name="X" unicode="X" 
d="M395 815l-129 631h346l60 -428l217 428h375l-422 -686l119 -760h-343l-55 545l-258 -545h-373z" />
    <glyph glyph-name="Y" unicode="Y" horiz-adv-x="1067" 
d="M655 856l295 590h391l-600 -975l-108 -471h-348l116 500l-137 946h342z" />
    <glyph glyph-name="Z" unicode="Z" horiz-adv-x="980" 
d="M252 1194l57 254h871l-62 -268l-721 -914h510l-61 -266h-899l61 266l729 928h-485z" />
    <glyph glyph-name="bracketleft" unicode="[" horiz-adv-x="724" 
d="M446 1448h529l-31 -133h-223l-381 -1606h221l-29 -127h-528z" />
    <glyph glyph-name="backslash" unicode="\" horiz-adv-x="598" 
d="M543 0h-242l-33 1446h238z" />
    <glyph glyph-name="bracketright" unicode="]" horiz-adv-x="724" 
d="M297 1448h528l-440 -1866h-528l28 127h230l370 1606h-219z" />
    <glyph glyph-name="asciicircum" unicode="^" horiz-adv-x="1492" 
d="M958 1446l398 -809h-283l-225 473l-238 -473h-280l415 809h213z" />
    <glyph glyph-name="underscore" unicode="_" 
d="M983 -154v-102h-1065v102h1065z" />
    <glyph glyph-name="grave" unicode="`" horiz-adv-x="512" 
d="M-33 1495h344l195 -254h-250z" />
    <glyph glyph-name="a" unicode="a" horiz-adv-x="980" 
d="M1014 756l-146 -631q-6 -48 -6 -49q0 -23 5.5 -39t9.5 -20.5t16 -16.5h-373l29 115q-41 -35 -62 -51t-62.5 -42.5t-83 -38.5t-87.5 -12q-16 0 -32.5 1t-53 12t-62.5 29.5t-47.5 59.5t-21.5 97q0 62 32 173.5t78 164.5q48 55 142 90.5t407 126.5q25 107 25 129
q0 61 -88 61q-64 0 -88.5 -32.5t-50.5 -126.5h-312q37 150 68.5 209t103.5 96q111 57 295 57q77 0 140.5 -10.5t120.5 -36t89.5 -74.5t32.5 -118q0 -49 -18 -123zM582 250l67 264q-171 -53 -207 -82q-34 -28 -50.5 -88.5t-16.5 -91.5q0 -68 71 -68q61 0 136 66z" />
    <glyph glyph-name="b" unicode="b" 
d="M367 1446h331l-106 -465q23 30 40.5 48.5t49 43.5t73 38t91.5 13q44 0 83.5 -12.5t73 -38.5t53 -72t19.5 -106q0 -124 -94 -510q-9 -37 -14 -57.5t-17 -59.5t-22 -62.5t-28 -58.5t-36 -56.5t-45 -46t-56.5 -38.5t-68 -23.5t-82.5 -9.5q-157 0 -219 150l-28 -123h-332z
M635 311l98 426q15 63 15 84q0 34 -21.5 58t-67.5 24q-86 0 -106 -86l-117 -502q-4 -24 -4 -39q0 -38 23.5 -59.5t62.5 -21.5q43 0 74 30t43 86z" />
    <glyph glyph-name="c" unicode="c" horiz-adv-x="980" 
d="M645 381h330q-19 -88 -41.5 -152t-63.5 -118q-111 -140 -362 -140q-25 0 -52 2t-68 9t-77 18.5t-74.5 34t-65.5 52.5t-44.5 75.5t-17.5 101.5q0 64 31 210.5t59.5 256t33.5 121.5q17 52 43.5 94t54.5 70t65 48t69.5 31t73 17.5t71 8t68.5 1.5q176 0 278.5 -73.5
t102.5 -204.5q0 -62 -27 -156h-315q28 110 28 139q0 33 -21 53.5t-60 20.5q-32 0 -56 -10.5t-38.5 -32.5t-23 -44.5t-16.5 -55.5l-102 -439q-4 -24 -4 -38q0 -38 12 -50q22 -36 76 -36q27 0 47 9.5t32 22t23 41.5t16 49t15 64z" />
    <glyph glyph-name="d" unicode="d" 
d="M782 983l107 463h330l-334 -1446h-330l33 133q-26 -32 -43 -49.5t-51.5 -45.5t-77 -42t-92.5 -14q-22 0 -46.5 3.5t-60 17.5t-62 36.5t-46 65.5t-19.5 100q0 70 56 314.5t73 293.5q15 53 28 88.5t39 82t57 73.5t81.5 47t114.5 20q30 0 62 -6.5t68.5 -20.5t67 -43.5
t45.5 -70.5zM633 340l98 424q8 36 8 53q0 39 -22 63.5t-64 24.5q-30 0 -52.5 -13t-35 -37.5t-18.5 -43t-12 -47.5l-95 -410q-14 -58 -14 -88q0 -42 25 -61t59 -19q31 0 53.5 14t36.5 42t19.5 46.5t13.5 51.5z" />
    <glyph glyph-name="e" unicode="e" 
d="M649 354h334q-14 -57 -23 -88.5t-32.5 -80.5t-55.5 -83q-114 -131 -366 -131q-40 0 -83.5 4.5t-110.5 24.5t-111 55q-90 71 -90 211q0 99 54 328.5t85 302.5q13 32 29 58t49.5 59.5t76.5 55.5t112 38t155 16q48 0 91.5 -4t100.5 -20.5t97.5 -43.5t69 -78.5t28.5 -121.5
q0 -50 -19 -139q-6 -27 -53 -246h-524q-37 -146 -37 -201q0 -17 6 -32q23 -41 90 -41q60 0 83 33.5t42 113.5q1 7 2 10zM508 672h211q29 127 29 149q0 36 -17 56q-22 28 -78 28q-19 0 -33.5 -3t-27 -11.5t-21 -16t-17 -26.5t-13.5 -31.5t-11.5 -41.5t-10 -46.5t-11.5 -56.5z
" />
    <glyph glyph-name="f" unicode="f" horiz-adv-x="641" 
d="M354 1098l25 106q15 63 24.5 91.5t33 66.5t56.5 53.5t90 27t140 11.5q87 0 192 -6l-47 -201q-88 2 -116 -5.5t-41 -37.5q-11 -24 -29 -106h143l-47 -197h-143l-207 -901h-328l207 901h-131l45 197h133z" />
    <glyph glyph-name="g" unicode="g" 
d="M524 -156l68 289q-24 -30 -42 -49t-52 -46.5t-77.5 -41.5t-94.5 -14q-95 0 -156 53q-68 62 -68 188q0 86 38.5 255.5t78.5 303.5q19 62 37.5 108.5t47.5 92.5t63 75t82.5 46.5t107.5 17.5q105 0 165 -56.5t60 -100.5l33 133h330l-256 -1110q-20 -85 -30 -121.5t-28 -90.5
t-39 -88.5t-51 -64.5q-116 -119 -354 -119q-25 0 -48.5 1t-66.5 7t-78 16t-75.5 30.5t-68 48t-46 71.5t-18.5 99q0 43 18 110h326q-21 -86 -21 -104q0 -76 92 -76q17 0 28.5 2.5t31 14t35.5 42t28 78.5zM639 334l104 454q5 25 5 33q0 48 -27.5 66t-61.5 18q-43 0 -76 -28
t-51 -105l-90 -387q-14 -63 -14 -98q0 -88 82 -88q54 0 85.5 39t43.5 96z" />
    <glyph glyph-name="h" unicode="h" 
d="M373 1446h325l-110 -473q23 28 44 48t54.5 44.5t76.5 37.5t93 13q95 0 160 -50.5t65 -156.5q0 -32 -12 -94l-188 -815h-324l178 772q6 24 6 49q0 43 -25 64.5t-61 21.5q-29 0 -49.5 -10t-31.5 -28t-16 -30.5t-9 -31.5l-184 -807h-326z" />
    <glyph glyph-name="i" unicode="i" horiz-adv-x="512" 
d="M373 1446h323l-55 -246h-326zM39 0l252 1098h325l-254 -1098h-323z" />
    <glyph glyph-name="j" unicode="j" horiz-adv-x="512" 
d="M319 1202l58 246h321l-55 -246h-324zM23 -80l272 1178h323l-274 -1188q-11 -49 -21 -85t-26 -67.5t-26 -53t-35 -39.5t-39.5 -29t-53 -19t-61 -11.5t-78.5 -6t-90.5 -2.5h-110.5l50 215q39 0 55.5 1t40 6t34 16t22 32t18.5 53z" />
    <glyph glyph-name="k" unicode="k" 
d="M375 1446h325l-176 -762l340 414h367l-426 -473l188 -625h-336l-155 590l-135 -590h-326z" />
    <glyph glyph-name="l" unicode="l" horiz-adv-x="512" 
d="M39 0l334 1446h327l-333 -1446h-328z" />
    <glyph glyph-name="m" unicode="m" horiz-adv-x="1579" 
d="M623 1098l-29 -125q35 48 81 81t91 46t73 17.5t50 4.5q32 0 63 -7t63 -22.5t54 -47t27 -74.5q122 153 321 153q36 0 70 -7.5t71.5 -26t60.5 -58.5t23 -96q0 -32 -12 -94l-194 -842h-332l180 778q4 28 4 41q0 36 -20.5 61t-63.5 25q-92 0 -119 -125l-180 -780h-334
l183 791q6 21 6 38q0 38 -24 61t-62 23q-96 0 -123 -120l-182 -793h-328l252 1098h330z" />
    <glyph glyph-name="n" unicode="n" 
d="M1069 817l-188 -817h-326l176 772q6 25 6 51q0 27 -10 44.5t-25.5 24t-23.5 8t-16 1.5q-33 0 -57.5 -15t-37.5 -39.5t-19 -41.5t-9 -35l-179 -770h-319l252 1098h321l-26 -109q127 133 291 133q23 0 45 -3t52.5 -15.5t52.5 -32.5t38 -58t16 -89q0 -49 -14 -107z" />
    <glyph glyph-name="o" unicode="o" 
d="M641 1126q48 0 89 -3.5t92.5 -13.5t91.5 -31t75.5 -53t54.5 -83t19 -117q0 -78 -45 -281.5t-74 -291.5q-11 -31 -19 -52t-26 -53t-37.5 -53t-52.5 -45.5t-73 -39t-97 -24.5t-125 -10q-403 0 -403 297q0 77 43.5 272t66.5 267q10 32 18 55t25.5 58t37.5 60.5t52.5 54
t71.5 46t94.5 29.5t120.5 12zM641 344l98 438q6 21 6 43q1 38 -24 60t-64 22q-25 0 -45 -9t-31 -20.5t-20 -31t-12.5 -32.5t-7.5 -32l-103 -438q-8 -36 -8 -63q0 -36 22 -60t66 -24q32 0 53.5 11t35 35.5t19.5 43.5t15 57z" />
    <glyph glyph-name="p" unicode="p" 
d="M1073 770l-106 -463q-38 -167 -114 -249.5t-206 -82.5q-92 0 -155 41t-82 109q-2 4 -3 17q-1 9 -2 10l-2 -5l-124 -542h-330l344 1493h330l-37 -140q23 30 37 46t42.5 42t54.5 40t65 25t83 11q98 0 160 -57.5t62 -163.5q0 -51 -17 -131zM639 309l98 428q17 74 17 92
q0 40 -23 62t-61 22q-92 0 -113 -100l-104 -453q-13 -58 -13 -81q0 -42 25.5 -64t60.5 -22q88 0 113 116z" />
    <glyph glyph-name="q" unicode="q" 
d="M461 -401l119 512q-22 -27 -37 -42t-47.5 -41t-75.5 -39.5t-94 -13.5q-97 0 -160 45q-76 56 -76 168q0 123 90 492q22 89 35 135t42.5 116t63 104.5t90 61.5t128.5 27q45 0 82.5 -8.5t62 -23.5t42.5 -31.5t28 -35.5t15 -32.5t7 -25.5l31 131h328l-347 -1499h-327z
M631 338l92 395q1 7 5 26.5t6.5 36t2.5 29.5q0 22 -8 41q-20 43 -82 43q-23 0 -42.5 -10t-31.5 -23.5t-22 -35t-15 -36.5t-10 -36q-38 -130 -61 -236q-14 -56 -30.5 -142t-16.5 -116q0 -43 23.5 -65.5t60.5 -22.5q57 0 85 39.5t44 112.5z" />
    <glyph glyph-name="r" unicode="r" horiz-adv-x="681" 
d="M618 1098l-51 -219q66 125 131.5 170.5t198.5 66.5l-82 -305q-23 2 -67 2q-45 0 -78.5 -6t-59 -22t-43 -35t-32.5 -54t-25 -70t-23 -91l-122 -535h-324l254 1098h323z" />
    <glyph glyph-name="s" unicode="s" horiz-adv-x="937" 
d="M80 375h315q-22 -73 -22 -109q0 -69 82 -69q36 0 59 14q47 33 47 111q0 28 -9.5 44t-31.5 33q-14 12 -65 50t-97 71.5t-47 34.5q-60 47 -90.5 95t-30.5 108q0 44 18 105t38 98q44 78 142.5 119.5t234.5 41.5q110 0 194.5 -27.5t135.5 -85t51 -139.5q0 -33 -17 -112h-309
q18 60 18 88q0 5 -0.5 10t-5.5 15t-12.5 17t-24 13t-39.5 6q-27 0 -47.5 -11t-29.5 -24.5t-14.5 -32t-6 -25.5t-0.5 -13q0 -27 14.5 -45t49.5 -45q1 -1 27 -19t54 -38.5t33 -24.5q52 -36 76.5 -54t56 -45.5t44.5 -49t22.5 -51t9.5 -64.5q0 -57 -23 -134.5t-61 -124.5
q-45 -56 -134.5 -92.5t-223.5 -36.5q-159 0 -254 43q-78 35 -115 88t-37 132q0 45 25 135z" />
    <glyph glyph-name="t" unicode="t" horiz-adv-x="641" 
d="M344 1098l80 350h321l-81 -350h145l-47 -197h-144l-133 -571q-8 -36 -8 -64q0 -17 6 -28t13.5 -17t28 -8.5t35.5 -3t50 -0.5l-47 -209q-92 0 -134 1t-104.5 5t-89 14.5t-57 28t-41 46t-10.5 69.5q0 38 18 106l152 631h-131l45 197h133z" />
    <glyph glyph-name="u" unicode="u" 
d="M287 1098h331l-165 -717q-19 -81 -19 -105q0 -39 23 -59t55 -20q31 0 54.5 16t38.5 46.5t22.5 54.5t15.5 59l166 725h330l-254 -1098h-328l25 115q-26 -28 -46 -45t-56 -41t-80.5 -36.5t-96.5 -12.5q-27 0 -53 4t-56.5 17t-53 33.5t-37.5 57.5t-15 86q0 56 16 123z" />
    <glyph glyph-name="v" unicode="v" horiz-adv-x="894" 
d="M193 1098h317q-19 -238 -33 -432q-27 -345 -45 -488q83 280 143 445q29 79 102 267t81 208h340l-490 -1098h-440z" />
    <glyph glyph-name="w" unicode="w" horiz-adv-x="1492" 
d="M211 0l-14 1098h315q-5 -93 -14 -303q-13 -263 -39 -537l80 254l211 586h368q-11 -185 -18 -391q-11 -220 -35 -449q39 156 76 254l217 586h342l-496 -1098h-352q0 277 4.5 413t22.5 406q-9 -30 -15.5 -51.5t-15.5 -46.5t-14 -39.5t-17 -47.5t-19 -51t-26.5 -69
t-32.5 -84q-101 -252 -168 -430h-360z" />
    <glyph glyph-name="x" unicode="x" horiz-adv-x="937" 
d="M362 586l-147 512h324l61 -299l172 299h340l-371 -551l148 -547h-320l-69 319l-191 -319h-358z" />
    <glyph glyph-name="y" unicode="y" horiz-adv-x="894" 
d="M195 1096h325l-90 -965q18 82 26.5 113t32.5 100l256 752h355l-445 -1014q-37 -84 -63.5 -139.5t-58 -109.5t-57 -85.5t-61.5 -61t-71 -44t-85 -25.5t-104 -14.5t-128 -3.5q-23 0 -72 1t-74 1l45 241q44 -3 78 -1t58.5 2t42 8.5t28 16.5t17 26.5t9 39t3.5 54.5z" />
    <glyph glyph-name="z" unicode="z" horiz-adv-x="854" 
d="M193 893l47 205h757l-47 -201l-542 -676h421l-51 -221h-815l47 209l553 684h-370z" />
    <glyph glyph-name="braceleft" unicode="{" horiz-adv-x="811" 
d="M186 430v176q28 5 43 8.5t36.5 12t32.5 20.5t24.5 33.5t20 50.5t11 72t4.5 98v139q0 87 2.5 128.5t19.5 93.5t52 90q21 23 43.5 39.5t53.5 27t54 16t68 8.5t70 3.5t84 1.5v-150q-26 0 -47 -2t-38 -8t-29.5 -11t-22 -17.5t-16 -21t-10.5 -27.5t-6.5 -31t-3.5 -38.5t-1 -42
v-48.5v-121q0 -62 -1 -93.5t-7 -85t-20.5 -83.5t-38 -64.5t-64 -53t-94.5 -26.5v-12q33 -5 61 -13.5t49 -23.5t38 -29.5t28.5 -37.5t20 -41t14 -47.5t8.5 -48.5t4 -53t1.5 -52.5t0.5 -54.5v-144q0 -39 0.5 -59.5t4 -49.5t10 -43.5t19 -32t31 -25.5t46 -13.5t63.5 -5.5v-150
q-68 1 -99.5 2t-81 6t-77 15t-59 28t-56.5 46q-27 29 -42.5 60t-22 76t-8 78t-1.5 103v109q0 45 -0.5 68t-3.5 62t-9.5 59.5t-19 47.5t-30.5 41.5t-45.5 26t-63.5 14.5z" />
    <glyph glyph-name="bar" unicode="|" horiz-adv-x="468" 
d="M461 1536v-2048h-260v2048h260z" />
    <glyph glyph-name="braceright" unicode="}" horiz-adv-x="811" 
d="M809 606v-176q-23 -4 -34 -6.5t-29.5 -8.5t-27.5 -12.5t-23 -17.5t-21 -25.5t-15.5 -36t-12 -48t-6.5 -62t-3 -78.5v-139q0 -66 -1.5 -98t-8 -76.5t-22 -76t-42.5 -60.5q-25 -28 -57 -46t-59.5 -28t-76.5 -15t-80.5 -6t-99.5 -2v150q29 0 52 3.5t40.5 8t30.5 15.5t22 20
t14.5 28t8.5 32.5t4.5 41t2 45.5t0.5 54v120q0 62 1 93.5t7 85t20.5 83.5t38 64.5t64 53t94.5 26.5v12q-37 5 -67 16.5t-52 25.5t-39 37t-28.5 42t-19 50.5t-11.5 52.5t-5.5 58.5t-2 58t-0.5 59.5v145q0 39 -0.5 59.5t-4 49.5t-10 43.5t-19 32t-31.5 25.5t-46.5 13.5
t-63.5 5.5v150q70 -1 99.5 -2t80 -6t77.5 -14.5t59 -27.5t57 -46q27 -29 42.5 -60t22 -76.5t8 -78.5t1.5 -103v-108q0 -45 0.5 -68t3.5 -62t9.5 -59.5t19 -48t30.5 -42t45.5 -26t63.5 -14.5z" />
    <glyph glyph-name="asciitilde" unicode="~" horiz-adv-x="1492" 
d="M1272 793l106 -213q-158 -172 -319 -172q-88 0 -215 65q-89 45 -130 60.5t-79 15.5q-62 0 -99 -27t-116 -116l-113 210q20 28 35 47t47 49.5t62.5 49t77 33t96.5 14.5q56 0 102.5 -16t183.5 -78q96 -47 156 -47q41 0 85 24t66.5 45.5t53.5 55.5z" />
    <glyph glyph-name="exclamdown" unicode="&#xa1;" horiz-adv-x="598" 
d="M301 1133l74 313h303l-74 -313h-303zM100 260l224 715h188l-104 -696l-64 -279h-303z" />
    <glyph glyph-name="cent" unicode="&#xa2;" horiz-adv-x="980" 
d="M297 -291l63 277q-251 56 -251 278q0 64 30.5 209.5t59 254t34.5 124.5q14 43 32.5 78.5t41.5 61t44 44.5t51.5 32.5t52 21.5t56.5 14t54 8t56 6l53 223h160l-56 -231q27 -5 45.5 -8.5t50.5 -13.5t54.5 -22t49 -33.5t43 -47.5t27.5 -64.5t11 -84.5q0 -56 -27 -148h-315
q28 110 28 139q0 35 -21 54.5t-58 19.5q-56 0 -86 -30.5t-50 -112.5l-102 -439q-4 -24 -4 -38q0 -38 12 -50q22 -36 76 -36q27 0 47 9.5t32 22t23 41.5t16 49t15 64h330q-13 -58 -21.5 -88t-26.5 -80.5t-44.5 -88t-61.5 -65.5q-52 -40 -143 -67t-162 -21l-61 -262h-158z" />
    <glyph glyph-name="sterling" unicode="&#xa3;" horiz-adv-x="1323" 
d="M229 752h254q-43 165 -43 268q0 453 480 453q182 0 288 -62q121 -68 121 -219q0 -77 -41 -234h-311q37 156 37 181q0 96 -105 96q-85 0 -112 -78q-41 -94 -41 -225q0 -68 22 -180h408l-27 -117h-362q16 -90 16 -137q0 -55 -13 -101.5t-40 -111.5q1 -1 9.5 -6t11.5 -6.5
t11 -6t13 -6t12.5 -4t15 -3.5t15.5 -1q22 0 38 4.5t29.5 19.5t22 28t19 45.5t16.5 55.5t19 74q0 1 0.5 2t0.5 2h320q-52 -225 -83 -303q-54 -134 -149 -178q-60 -27 -145 -27q-55 0 -101.5 12t-83.5 36.5t-56 40.5t-48 45q-22 -24 -42.5 -40.5t-59.5 -41.5t-93 -38.5
t-118 -13.5q-143 0 -220 71.5t-77 176.5q0 108 78 190.5t211 82.5q53 0 98 -12t69 -25t64 -39q3 63 -4.5 103.5t-32.5 111.5h-317zM518 238q-24 30 -43 48t-56 36t-79 18q-54 0 -84.5 -29.5t-30.5 -74.5q0 -29 13 -50t33.5 -31.5t39 -15t35.5 -4.5q40 0 76.5 19t54.5 37.5
t41 46.5z" />
    <glyph glyph-name="currency" unicode="&#xa4;" horiz-adv-x="1366" 
d="M1460 1169l-168 -163q26 -42 41.5 -74t31 -96.5t15.5 -139.5q0 -76 -16.5 -143.5t-31.5 -98.5t-40 -71l166 -168l-196 -195l-164 168q-145 -86 -307 -86q-57 0 -106 8t-90.5 24t-61.5 26t-54 30l-166 -165l-194 194l168 166q-26 41 -41 71t-31 96t-16 144q0 59 7.5 107.5
t23.5 89.5t25.5 59.5t29.5 53.5l-162 163l192 195l164 -164q145 88 312 88q77 0 142.5 -16t95.5 -31t71 -41l164 164zM1124 696q0 78 -29.5 143.5t-77.5 107t-106.5 64.5t-119.5 23q-62 0 -121.5 -23t-107.5 -64.5t-77.5 -107.5t-29.5 -145t30.5 -144.5t79.5 -107t107.5 -64
t118.5 -22.5q144 0 238.5 98.5t94.5 241.5z" />
    <glyph glyph-name="yen" unicode="&#xa5;" horiz-adv-x="1067" 
d="M1341 1448l-346 -561h152l-47 -193h-226l-75 -127h266l-41 -192h-307l-84 -375h-348l86 375h-301l49 192h270l-16 127h-226l48 193h151l-82 561h342l47 -598l297 598h391z" />
    <glyph glyph-name="brokenbar" unicode="&#xa6;" horiz-adv-x="468" 
d="M201 -358v716h260v-716h-260zM461 666h-260v716h260v-716z" />
    <glyph glyph-name="section" unicode="&#xa7;" horiz-adv-x="937" 
d="M45 197l160 165q29 -32 49.5 -51t57 -48t75.5 -43.5t80 -14.5q36 0 62 14t26 43q0 25 -18 45.5t-76 63.5q-61 46 -88.5 67.5t-68 56t-57.5 56t-36.5 52.5t-26 61.5t-6.5 66.5q0 37 8.5 69.5t18 55t30 45t32 34t38 27t32.5 18.5l30 15q-24 24 -38.5 41.5t-32 59
t-17.5 88.5q0 123 100.5 206t277.5 83q80 0 149 -18t121 -51.5t76 -53.5t56 -52l-152 -161q-64 58 -116 88t-117 30q-82 0 -82 -55q0 -24 19 -42t106 -81q55 -40 81.5 -60.5t63.5 -51.5t53 -51.5t34 -49.5t24 -58.5t6 -64.5q0 -49 -14.5 -92t-32.5 -70t-49 -53.5t-49 -37.5
t-46 -27q25 -30 38.5 -50t27.5 -59t14 -82q0 -55 -20.5 -105t-63 -94t-118.5 -70t-177 -26q-56 0 -109 10.5t-91 24t-77 37.5t-60.5 40t-49 44.5t-34 36.5t-23.5 29zM459 918q-51 -51 -51 -99q0 -54 59 -100q1 -1 50.5 -38t106.5 -80t72 -56q20 17 29.5 27t20 29t10.5 40
q0 38 -24 63.5t-109 88.5q-66 49 -164 125z" />
    <glyph glyph-name="dieresis" unicode="&#xa8;" horiz-adv-x="512" 
d="M309 1237l58 256h286l-57 -256h-287zM-84 1493h285l-60 -256h-282z" />
    <glyph glyph-name="copyright" unicode="&#xa9;" horiz-adv-x="1705" 
d="M1679 719q0 -144 -55 -276.5t-150.5 -231.5t-233 -158t-292.5 -59q-141 0 -273 54t-232.5 148t-161 231.5t-60.5 295.5q0 154 59 290.5t158 232t232.5 151t279.5 55.5q202 0 369.5 -96t263.5 -264t96 -373zM1614 719q0 137 -50.5 260.5t-138 212.5t-211.5 141.5
t-264 52.5q-134 0 -256 -52t-211.5 -140t-142.5 -211.5t-53 -259.5q0 -138 52.5 -261.5t141.5 -211.5t211.5 -139.5t257.5 -51.5q140 0 264.5 54t211.5 144t137.5 210.5t50.5 251.5zM1190 553l178 -164q-92 -98 -190.5 -135t-210.5 -37q-235 0 -373.5 142.5t-138.5 369.5
q0 98 33.5 188.5t96 162t161.5 114.5t221 43q64 0 122 -12.5t97.5 -30t78.5 -44t59 -44.5t44 -43l-178 -172q-57 55 -109.5 77.5t-117.5 22.5q-63 0 -113 -22.5t-80 -60.5t-45.5 -84t-15.5 -97q0 -125 72.5 -195.5t187.5 -70.5q43 0 79.5 8.5t66 27t41 27.5t34.5 29z" />
    <glyph glyph-name="ordfeminine" unicode="&#xaa;" horiz-adv-x="641" 
d="M799 1237l-90 -393q-4 -20 -4 -31q0 -20 4.5 -28.5t17.5 -20.5h-242l15 65q-30 -26 -49 -40t-55 -29t-72 -15q-9 0 -19.5 1t-34 7.5t-40 18.5t-30.5 37.5t-14 60.5q0 43 20 112t50 103q31 37 112 67.5t228 68.5q14 69 14 77q0 35 -51 35q-14 0 -22.5 -2t-22 -10
t-23.5 -30t-16 -56h-199q24 91 33 114.5t27 43.5q65 71 231 71q130 0 193 -47q49 -35 49 -102q0 -15 -10 -78zM524 924l41 157q-95 -25 -123 -47q-20 -16 -30.5 -53t-10.5 -57q0 -39 43 -39q34 0 80 39z" />
    <glyph glyph-name="guillemotleft" unicode="&#xab;" horiz-adv-x="894" 
d="M575 717l392 270l-70 -297l-166 -117l113 -116l-62 -260l-266 260zM168 719l389 266l-68 -293l-170 -117l115 -118l-59 -256l-269 256z" />
    <glyph glyph-name="logicalnot" unicode="&#xac;" horiz-adv-x="1366" 
d="M1176 0v465h-1104v260h1364v-725h-260z" />
    <glyph glyph-name="registered" unicode="&#xae;" horiz-adv-x="1705" 
d="M608 1200h334q158 0 223 -22q84 -26 125 -92t41 -140q0 -48 -15.5 -86t-44.5 -63.5t-50 -38t-54 -27.5q32 -21 48 -36t31.5 -49.5t25.5 -90.5q16 -106 32 -169t48 -124h-258q-21 39 -30 77t-22 126q-6 37 -8 50.5t-7.5 39.5t-8 33t-10.5 23t-13 18.5t-18.5 11t-23.5 8.5
t-31 3t-39 3h-49v-393h-226v938zM834 1028v-194h98q29 0 44 0.5t39.5 3t37.5 9t27 17t20 28.5t6 42q0 29 -11.5 49.5t-29.5 28.5t-30.5 11t-22.5 3q-16 2 -178 2zM1679 721q0 -144 -55 -277t-150.5 -232.5t-233 -158.5t-292.5 -59q-141 0 -273 54t-232.5 148t-161 231.5
t-60.5 295.5q0 154 59 290.5t157.5 232t232 151t278.5 55.5q152 0 287.5 -56.5t233 -153.5t154 -232.5t56.5 -288.5zM1614 721q0 183 -86 335t-239 241t-341 89q-133 0 -255 -51.5t-211 -139.5t-142 -211.5t-53 -260.5q0 -184 89.5 -337t241 -240t330.5 -87q142 0 267 54
t212 144t137 211t50 253z" />
    <glyph glyph-name="macron" unicode="&#xaf;" horiz-adv-x="512" 
d="M-55 1415h663l-39 -178h-665z" />
    <glyph glyph-name="macron" unicode="&#x2c9;" horiz-adv-x="512" 
d="M-55 1415h663l-39 -178h-665z" />
    <glyph glyph-name="degree" unicode="&#xb0;" horiz-adv-x="724" 
d="M551 1526q150 0 251 -105t101 -250q0 -144 -102.5 -248t-249.5 -104q-146 0 -249 103.5t-103 248.5t101 250t251 105zM553 1290q-47 0 -81 -32.5t-34 -81.5q0 -46 34 -79.5t81 -33.5q46 0 79.5 33t33.5 80q0 50 -33.5 82t-79.5 32z" />
    <glyph glyph-name="plusminus" unicode="&#xb1;" horiz-adv-x="1366" 
d="M911 760v-428h-260v428h-469v260h469v426h260v-426h465v-260h-465zM1376 260v-260h-1194v260h1194z" />
    <glyph glyph-name="twosuperior" unicode="&#xb2;" horiz-adv-x="681" 
d="M709 543h-574q19 146 61.5 224.5t118.5 135.5q14 10 79 52.5t121.5 81.5t66.5 53q18 23 31.5 78.5t13.5 80.5q0 54 -58 54q-45 0 -62 -35t-44 -158h-207q33 159 58 214q41 91 131 120q52 16 130 16q265 0 265 -182q0 -42 -13 -107.5t-39 -123.5q-14 -30 -28 -50t-40 -41
t-45 -33.5t-67 -41.5q-115 -69 -150 -98t-55 -72h345z" />
    <glyph glyph-name="threesuperior" unicode="&#xb3;" horiz-adv-x="681" 
d="M469 1167h-203q18 76 28 109.5t32.5 79t52.5 63t81 31.5t124 14q47 0 89 -9t78.5 -28.5t58 -54.5t21.5 -82q0 -74 -32 -172q-28 -88 -111 -100q-4 -2 -8 -2l8 -2q7 -2 15.5 -6t23 -14.5t24 -31.5t9.5 -49q0 -33 -21 -126t-53 -148q-36 -62 -100 -86.5t-162 -24.5
q-113 0 -181.5 45.5t-68.5 143.5q0 45 21 135h202q-22 -95 -22 -121q0 -55 69 -55q27 0 45 11.5t29 43.5q7 20 19 78.5t12 81.5q0 32 -23.5 38.5t-124.5 6.5l37 158q95 0 115 2t35 14q20 17 31.5 72.5t11.5 79.5q0 51 -58 51q-51 0 -68 -27t-36 -119z" />
    <glyph glyph-name="acute" unicode="&#xb4;" horiz-adv-x="512" 
d="M-8 1239l190 256h340l-282 -256h-248z" />
    <glyph glyph-name="mu" unicode="&#xb5;" 
d="M555 0l27 115q-46 -70 -74.5 -95.5t-65.5 -25.5q-34 0 -71 33l-99 -422h-329l344 1493h329l-163 -717q-19 -86 -19 -105q0 -38 23 -58.5t55 -20.5q24 0 44 11t33 27.5t24 41.5t17.5 46.5t12.5 49.5l166 725h330l-254 -1098h-330z" />
    <glyph glyph-name="mu" unicode="&#x3bc;" 
d="M555 0l27 115q-46 -70 -74.5 -95.5t-65.5 -25.5q-34 0 -71 33l-99 -422h-329l344 1493h329l-163 -717q-19 -86 -19 -105q0 -38 23 -58.5t55 -20.5q24 0 44 11t33 27.5t24 41.5t17.5 46.5t12.5 49.5l166 725h330l-254 -1098h-330z" />
    <glyph glyph-name="paragraph" unicode="&#xb6;" horiz-adv-x="1366" 
d="M727 1446h512v-160h-74v-1628h-172v1628h-241v-1628h-172v940q-23 6 -40.5 11.5t-52.5 21t-61.5 33.5t-58.5 51t-53 71.5t-35.5 95.5t-14.5 124q0 205 135 329q73 68 154 89.5t174 21.5z" />
    <glyph glyph-name="periodcentered" unicode="&#xb7;" horiz-adv-x="512" 
d="M168 561l72 313h307l-74 -313h-305z" />
    <glyph glyph-name="periodcentered" unicode="&#x2219;" horiz-adv-x="512" 
d="M168 561l72 313h307l-74 -313h-305z" />
    <glyph glyph-name="cedilla" unicode="&#xb8;" horiz-adv-x="512" 
d="M252 0h168l-96 -115q23 -3 34 -5t36.5 -11t39 -22t25.5 -38t12 -59q0 -76 -62.5 -136t-183.5 -60q-38 0 -74 8t-56 16.5t-56 26.5v94q86 -31 121 -31q55 0 79.5 31t24.5 63q0 31 -23.5 52.5t-58.5 21.5q-15 0 -39 -4q-1 7 -4 26.5t-4 26.5z" />
    <glyph glyph-name="onesuperior" unicode="&#xb9;" horiz-adv-x="681" 
d="M524 543h-200l149 655q-44 -25 -70.5 -35.5t-78.5 -23.5l45 192q140 14 194 115h172z" />
    <glyph glyph-name="ordmasculine" unicode="&#xba;" horiz-adv-x="641" 
d="M541 1464q266 0 266 -188q0 -50 -32 -194t-54 -199q-10 -21 -17.5 -34t-28.5 -35.5t-46 -36t-68.5 -24t-97.5 -10.5q-252 0 -252 187q0 48 27 170.5t41 165.5q9 30 17.5 51.5t28.5 51.5t46 48.5t70 32.5t100 14zM539 977l61 272q4 16 4 27q0 27 -17 37t-36 10
q-34 0 -48 -21.5t-20 -54.5l-63 -272q-6 -18 -6 -39q0 -49 51 -49q19 0 32 6t21 21.5t11.5 26.5t9.5 36z" />
    <glyph glyph-name="guillemotright" unicode="&#xbb;" horiz-adv-x="894" 
d="M199 729l59 262l268 -262l-61 -262l-389 -268l67 293l168 122zM606 729l60 256l268 -256l-62 -262l-387 -266l68 293l170 116z" />
    <glyph glyph-name="onequarter" unicode="&#xbc;" horiz-adv-x="1622" 
d="M524 543h-200l149 655q-60 -34 -149 -59l45 192q140 14 194 117h172zM442 0l713 1448h162l-713 -1448h-162zM946 190l35 158l395 557h269l-129 -561h83l-32 -149h-84l-47 -195h-205l47 190h-332zM1157 348h160l35 152q22 89 61 235q-49 -78 -129 -198z" />
    <glyph glyph-name="onehalf" unicode="&#xbd;" horiz-adv-x="1622" 
d="M524 543h-202l151 653q-70 -37 -151 -57l45 192q142 15 194 115h174zM416 0l712 1446h164l-714 -1446h-162zM1522 0h-574q19 146 61.5 224.5t118.5 135.5q14 10 79 52.5t121.5 81.5t66.5 53q18 23 31.5 79t13.5 81q0 53 -58 53q-45 0 -62 -35t-44 -158h-207
q33 160 58 215q43 92 133 120q53 16 129 16q264 0 264 -183q0 -43 -12.5 -108t-38.5 -123q-18 -39 -44.5 -67.5t-50 -44.5t-86.5 -54q-114 -69 -149 -98t-55 -72h344z" />
    <glyph glyph-name="threequarters" unicode="&#xbe;" horiz-adv-x="1622" 
d="M502 0l712 1448h162l-712 -1448h-162zM946 190l35 158l395 557h269l-132 -561h86l-34 -149h-82l-47 -195h-207l47 190h-330zM1157 348h160l35 152q44 180 61 235q-15 -24 -129 -198zM469 1167h-203q18 76 28 109.5t32.5 79t52.5 63t81 31.5t124 14q47 0 89 -9t78.5 -28.5
t58 -54.5t21.5 -82q0 -74 -32 -172q-28 -88 -111 -100q-4 -2 -8 -2l8 -2q7 -2 15.5 -6t23 -14.5t24 -31.5t9.5 -49q0 -33 -21 -126t-53 -148q-36 -62 -100 -86.5t-162 -24.5q-113 0 -181.5 45.5t-68.5 143.5q0 45 21 135h202q-22 -95 -22 -121q0 -55 69 -55q27 0 45 11.5
t29 43.5q7 20 19 78.5t12 81.5q0 32 -23.5 38.5t-124.5 6.5l37 158q95 0 115 2t35 14q20 17 31.5 72.5t11.5 79.5q0 51 -58 51q-51 0 -68 -27t-36 -119z" />
    <glyph glyph-name="questiondown" unicode="&#xbf;" horiz-adv-x="937" 
d="M567 412h299q-44 -188 -64.5 -246t-64.5 -100q-98 -93 -327 -93q-361 0 -361 260q0 99 45 218q22 61 59 96.5t148 111.5q61 42 87 59.5t57 45.5t39.5 39.5t22.5 43.5t18 54t14 74h307q-41 -183 -63 -235t-85 -105q-14 -12 -138.5 -96t-145.5 -107q-28 -31 -44 -79
t-16 -89q0 -36 20 -56t56 -20q61 0 81.5 36.5t52.5 175.5zM956 1448l-73 -313h-308l74 313h307z" />
    <glyph glyph-name="Agrave" unicode="&#xc0;" horiz-adv-x="1110" 
d="M-27 0l621 1446h563l-104 -1446h-344l30 322h-268l-123 -322h-375zM762 569l65 744l-262 -744h197zM510 1796h346l191 -252h-248z" />
    <glyph glyph-name="Aacute" unicode="&#xc1;" horiz-adv-x="1110" 
d="M-27 0l621 1446h563l-104 -1446h-344l30 322h-268l-123 -322h-375zM762 569l65 744l-262 -744h197zM707 1544l190 254h340l-281 -254h-249z" />
    <glyph glyph-name="Acircumflex" unicode="&#xc2;" horiz-adv-x="1110" 
d="M-27 0l621 1446h563l-104 -1446h-344l30 322h-268l-123 -322h-375zM762 569l65 744l-262 -744h197zM795 1798h260l145 -256h-215l-76 127l-135 -127h-252z" />
    <glyph glyph-name="Atilde" unicode="&#xc3;" horiz-adv-x="1110" 
d="M-27 0l621 1446h563l-104 -1446h-344l30 322h-268l-123 -322h-375zM762 569l65 744l-262 -744h197zM657 1563h-94q5 35 10 58t20 61t36 61t59.5 41t89.5 18t133 -28q110 -39 140 -39q28 0 47.5 10.5t26 20.5t16.5 30h92q-6 -35 -11 -56.5t-21.5 -61.5t-37.5 -64t-60 -43
t-89 -19q-58 0 -140 31q-103 41 -135 41q-21 0 -36 -5t-24 -16t-13 -18.5t-9 -21.5z" />
    <glyph glyph-name="Adieresis" unicode="&#xc4;" horiz-adv-x="1110" 
d="M-27 0l621 1446h563l-104 -1446h-344l30 322h-268l-123 -322h-375zM762 569l65 744l-262 -744h197zM971 1538l59 256h287l-62 -256h-284zM578 1794h284l-59 -256h-285z" />
    <glyph glyph-name="Aring" unicode="&#xc5;" horiz-adv-x="1110" 
d="M-27 0l621 1446h563l-104 -1446h-344l30 322h-268l-123 -322h-375zM762 569l65 744l-262 -744h197zM924 1481q-91 0 -154 48.5t-63 129.5q3 86 59 131t149 45q94 0 155 -44t65 -134q0 -87 -64.5 -131.5t-146.5 -44.5zM1016 1657q0 37 -21 66.5t-73 29.5t-75.5 -30
t-23.5 -66t23.5 -67t75.5 -31q50 0 72 33t22 65z" />
    <glyph glyph-name="AE" unicode="&#xc6;" horiz-adv-x="1622" 
d="M-20 0l837 1446h1012l-60 -250h-372l-78 -334h352l-57 -248h-352l-84 -364h409l-57 -250h-758l94 401h-280l-211 -401h-395zM924 651l149 639l-352 -639h203z" />
    <glyph glyph-name="Ccedilla" unicode="&#xc7;" horiz-adv-x="1067" 
d="M1094 547l-52 -211q-33 -136 -80.5 -209.5t-132 -110t-229.5 -43.5l-74 -88q21 -3 33.5 -5t37 -11.5t39 -22.5t26.5 -38t12 -58q0 -76 -62.5 -136t-183.5 -60q-39 0 -75 8.5t-55 16.5t-56 26v94q4 -1 22 -8t25.5 -9.5t22 -6.5t26.5 -5.5t24 -1.5q55 0 80 31.5t25 62.5
t-23.5 52.5t-58.5 21.5q-15 0 -39 -4q-1 7 -4 26.5t-4 26.5l90 90q-90 10 -156 38.5t-102 69.5t-53 84.5t-17 90.5q0 68 33 203l139 610q13 57 25.5 97.5t33 85t45.5 75t62.5 59t85.5 45.5t113 27t145 10q120 0 205 -21t132.5 -61.5t68 -91.5t20.5 -118q0 -48 -12 -103
l-43 -178h-336l39 170q6 21 6 47q0 92 -108 92q-97 0 -117 -86l-172 -741q-12 -50 -12 -74q0 -82 100 -82q78 0 107.5 58.5t74.5 265.5h359z" />
    <glyph glyph-name="Egrave" unicode="&#xc8;" horiz-adv-x="894" 
d="M41 0l334 1446h727l-58 -250h-374l-76 -328h356l-55 -245h-358l-84 -369h409l-57 -254h-764zM393 1796h346l191 -252h-248z" />
    <glyph glyph-name="Eacute" unicode="&#xc9;" horiz-adv-x="894" 
d="M41 0l334 1446h727l-58 -250h-374l-76 -328h356l-55 -245h-358l-84 -369h409l-57 -254h-764zM590 1544l190 254h340l-280 -254h-250z" />
    <glyph glyph-name="Ecircumflex" unicode="&#xca;" horiz-adv-x="894" 
d="M41 0l334 1446h727l-58 -250h-374l-76 -328h356l-55 -245h-358l-84 -369h409l-57 -254h-764zM678 1798h260l145 -256h-215l-75 127l-136 -127h-251z" />
    <glyph glyph-name="Edieresis" unicode="&#xcb;" horiz-adv-x="894" 
d="M41 0l334 1446h727l-58 -250h-374l-76 -328h356l-55 -245h-358l-84 -369h409l-57 -254h-764zM831 1538l60 256h287l-62 -256h-285zM438 1794h285l-59 -256h-285z" />
    <glyph glyph-name="Igrave" unicode="&#xcc;" horiz-adv-x="555" 
d="M43 0l334 1446h350l-334 -1446h-350zM211 1796h346l191 -252h-248z" />
    <glyph glyph-name="Iacute" unicode="&#xcd;" horiz-adv-x="555" 
d="M43 0l334 1446h350l-334 -1446h-350zM408 1544l190 254h340l-281 -254h-249z" />
    <glyph glyph-name="Icircumflex" unicode="&#xce;" horiz-adv-x="555" 
d="M43 0l334 1446h350l-334 -1446h-350zM496 1798h260l145 -256h-215l-76 127l-135 -127h-252z" />
    <glyph glyph-name="Idieresis" unicode="&#xcf;" horiz-adv-x="555" 
d="M43 0l334 1446h350l-334 -1446h-350zM649 1538l60 256h286l-61 -256h-285zM256 1794h285l-60 -256h-284z" />
    <glyph glyph-name="Eth" unicode="&#xd0;" horiz-adv-x="1110" 
d="M45 0l158 682h-111l49 209h111l127 557h405q80 0 124 -1.5t106.5 -8.5t95.5 -22.5t67.5 -42t49 -69.5t14.5 -102q0 -57 -16 -139l-164 -711q-16 -71 -30.5 -117.5t-36 -89.5t-48.5 -67.5t-67 -43.5t-92.5 -26.5t-124.5 -7.5h-617zM684 682h-131l-102 -440q124 0 153 4
q17 2 28.5 6t30 16.5t33.5 41t25 71.5l160 700q4 24 4 39q0 47 -26.5 63.5t-76.5 16.5h-110l-72 -309h133z" />
    <glyph glyph-name="Ntilde" unicode="&#xd1;" horiz-adv-x="1150" 
d="M379 1446h340q69 -531 104 -897q41 260 88 479q35 164 88 418h322l-336 -1446h-336l-51 416q-34 276 -51 475l-176 -891h-326zM657 1563h-94q5 35 10 58t20 61t36 61t59.5 41t89.5 18t133 -28q110 -39 140 -39q28 0 47.5 10.5t26 20.5t16.5 30h92q-6 -35 -11 -56.5
t-21.5 -61.5t-37.5 -64t-60 -43t-89 -19q-58 0 -140 31q-103 41 -135 41q-21 0 -36 -5t-24 -16t-13 -18.5t-9 -21.5z" />
    <glyph glyph-name="Ograve" unicode="&#xd2;" horiz-adv-x="1110" 
d="M139 475l133 559q11 48 19 78t22 72t28 68.5t36 60t47.5 54t61.5 42.5t79 34t98.5 19.5t120.5 7.5q219 0 326 -75q113 -81 113 -238q0 -96 -54 -317l-114 -488q-35 -145 -92 -226.5t-155 -119t-259 -37.5q-63 0 -119 7.5t-115.5 29.5t-102 56.5t-70 94.5t-27.5 138
q0 72 24 180zM662 1122q-28 -94 -114.5 -433t-86.5 -374q0 -84 106 -84q67 0 96.5 44.5t57.5 154.5q51 198 131 543q31 121 31 145q0 43 -25.5 67.5t-75.5 24.5q-32 0 -54.5 -7.5t-35 -22.5t-18.5 -27t-12 -31zM489 1796h347l190 -252h-248z" />
    <glyph glyph-name="Oacute" unicode="&#xd3;" horiz-adv-x="1110" 
d="M139 475l133 559q11 48 19 78t22 72t28 68.5t36 60t47.5 54t61.5 42.5t79 34t98.5 19.5t120.5 7.5q219 0 326 -75q113 -81 113 -238q0 -96 -54 -317l-114 -488q-35 -145 -92 -226.5t-155 -119t-259 -37.5q-63 0 -119 7.5t-115.5 29.5t-102 56.5t-70 94.5t-27.5 138
q0 72 24 180zM662 1122q-28 -94 -114.5 -433t-86.5 -374q0 -84 106 -84q67 0 96.5 44.5t57.5 154.5q51 198 131 543q31 121 31 145q0 43 -25.5 67.5t-75.5 24.5q-32 0 -54.5 -7.5t-35 -22.5t-18.5 -27t-12 -31zM696 1544l191 254h340l-281 -254h-250z" />
    <glyph glyph-name="Ocircumflex" unicode="&#xd4;" horiz-adv-x="1110" 
d="M139 475l133 559q11 48 19 78t22 72t28 68.5t36 60t47.5 54t61.5 42.5t79 34t98.5 19.5t120.5 7.5q219 0 326 -75q113 -81 113 -238q0 -96 -54 -317l-114 -488q-35 -145 -92 -226.5t-155 -119t-259 -37.5q-63 0 -119 7.5t-115.5 29.5t-102 56.5t-70 94.5t-27.5 138
q0 72 24 180zM662 1122q-28 -94 -114.5 -433t-86.5 -374q0 -84 106 -84q67 0 96.5 44.5t57.5 154.5q51 198 131 543q31 121 31 145q0 43 -25.5 67.5t-75.5 24.5q-32 0 -54.5 -7.5t-35 -22.5t-18.5 -27t-12 -31zM784 1798h260l146 -256h-215l-76 127l-135 -127h-252z" />
    <glyph glyph-name="Otilde" unicode="&#xd5;" horiz-adv-x="1110" 
d="M139 475l133 559q11 48 19 78t22 72t28 68.5t36 60t47.5 54t61.5 42.5t79 34t98.5 19.5t120.5 7.5q219 0 326 -75q113 -81 113 -238q0 -96 -54 -317l-114 -488q-35 -145 -92 -226.5t-155 -119t-259 -37.5q-63 0 -119 7.5t-115.5 29.5t-102 56.5t-70 94.5t-27.5 138
q0 72 24 180zM662 1122q-28 -94 -114.5 -433t-86.5 -374q0 -84 106 -84q67 0 96.5 44.5t57.5 154.5q51 198 131 543q31 121 31 145q0 43 -25.5 67.5t-75.5 24.5q-32 0 -54.5 -7.5t-35 -22.5t-18.5 -27t-12 -31zM647 1563h-94q5 35 10 58t20 61t36 61t59.5 41t89.5 18
t133 -28q110 -39 139 -39q28 0 47.5 10.5t26 20.5t16.5 30h93q-6 -35 -11 -56.5t-21.5 -61.5t-37.5 -64t-60 -43t-89 -19q-58 0 -140 31q-103 41 -135 41q-21 0 -36 -5t-24 -16t-13 -18.5t-9 -21.5z" />
    <glyph glyph-name="Odieresis" unicode="&#xd6;" horiz-adv-x="1110" 
d="M139 475l133 559q11 48 19 78t22 72t28 68.5t36 60t47.5 54t61.5 42.5t79 34t98.5 19.5t120.5 7.5q219 0 326 -75q113 -81 113 -238q0 -96 -54 -317l-114 -488q-35 -145 -92 -226.5t-155 -119t-259 -37.5q-63 0 -119 7.5t-115.5 29.5t-102 56.5t-70 94.5t-27.5 138
q0 72 24 180zM662 1122q-28 -94 -114.5 -433t-86.5 -374q0 -84 106 -84q67 0 96.5 44.5t57.5 154.5q51 198 131 543q31 121 31 145q0 43 -25.5 67.5t-75.5 24.5q-32 0 -54.5 -7.5t-35 -22.5t-18.5 -27t-12 -31zM952 1538l60 256h286l-61 -256h-285zM559 1794h285l-60 -256
h-284z" />
    <glyph glyph-name="multiply" unicode="&#xd7;" horiz-adv-x="1366" 
d="M1335 225l-182 -186l-375 373l-372 -373l-185 186l373 371l-373 375l185 180l372 -369l375 369l182 -180l-370 -375z" />
    <glyph glyph-name="Oslash" unicode="&#xd8;" horiz-adv-x="1110" 
d="M23 88l106 115q-10 52 -10 92q0 74 47 288q5 25 8 38q62 267 121 475q40 135 73 193q79 135 254 170q69 14 156 14q93 0 163 -11t115.5 -33.5t68 -38.5t49.5 -42l77 82l86 -82l-112 -121q6 -35 6 -58q0 -84 -74 -399q-56 -239 -106 -416q-11 -41 -20 -69.5t-22.5 -64
t-27.5 -60t-35 -52t-45.5 -46t-57.5 -36.5t-72 -28t-88.5 -16.5t-107.5 -6.5q-92 0 -158.5 9t-111 28t-66.5 34t-53 42l-77 -80zM487 594l408 448q6 38 6 74q0 31 -12 54t-26.5 33.5t-35 16.5t-29.5 6.5t-18 0.5q-23 0 -41.5 -4t-34.5 -16.5t-27.5 -23t-24.5 -36t-21 -44
t-20.5 -57.5t-19.5 -64.5t-22 -78.5q-80 -299 -82 -309zM850 817l-399 -438q-5 -35 -5 -45q0 -58 36 -84.5t83 -26.5q40 0 68.5 15t50 49t35 68.5t31.5 93.5q11 39 100 368z" />
    <glyph glyph-name="Ugrave" unicode="&#xd9;" horiz-adv-x="1110" 
d="M158 600l200 848h349l-238 -1034q-12 -36 -12 -80q0 -43 28.5 -64.5t77.5 -21.5q36 0 61.5 13.5t42 41t25 50.5t17.5 61l237 1034h348l-239 -1034q-13 -56 -24 -94.5t-32 -88t-45 -83t-63 -68.5t-87.5 -55.5t-116 -34t-150.5 -13.5q-91 0 -166.5 17t-137 53t-95.5 99.5
t-32 148.5q3 95 52 305zM489 1796h347l190 -252h-248z" />
    <glyph glyph-name="Uacute" unicode="&#xda;" horiz-adv-x="1110" 
d="M158 600l200 848h349l-238 -1034q-12 -36 -12 -80q0 -43 28.5 -64.5t77.5 -21.5q36 0 61.5 13.5t42 41t25 50.5t17.5 61l237 1034h348l-239 -1034q-13 -56 -24 -94.5t-32 -88t-45 -83t-63 -68.5t-87.5 -55.5t-116 -34t-150.5 -13.5q-91 0 -166.5 17t-137 53t-95.5 99.5
t-32 148.5q3 95 52 305zM686 1544l191 254h340l-281 -254h-250z" />
    <glyph glyph-name="Ucircumflex" unicode="&#xdb;" horiz-adv-x="1110" 
d="M158 600l200 848h349l-238 -1034q-12 -36 -12 -80q0 -43 28.5 -64.5t77.5 -21.5q36 0 61.5 13.5t42 41t25 50.5t17.5 61l237 1034h348l-239 -1034q-13 -56 -24 -94.5t-32 -88t-45 -83t-63 -68.5t-87.5 -55.5t-116 -34t-150.5 -13.5q-91 0 -166.5 17t-137 53t-95.5 99.5
t-32 148.5q3 95 52 305zM774 1798h260l146 -256h-215l-76 127l-135 -127h-252z" />
    <glyph glyph-name="Udieresis" unicode="&#xdc;" horiz-adv-x="1110" 
d="M158 600l200 848h349l-238 -1034q-12 -36 -12 -80q0 -43 28.5 -64.5t77.5 -21.5q36 0 61.5 13.5t42 41t25 50.5t17.5 61l237 1034h348l-239 -1034q-13 -56 -24 -94.5t-32 -88t-45 -83t-63 -68.5t-87.5 -55.5t-116 -34t-150.5 -13.5q-91 0 -166.5 17t-137 53t-95.5 99.5
t-32 148.5q3 95 52 305zM930 1538l59 256h287l-62 -256h-284zM537 1794h284l-59 -256h-285z" />
    <glyph glyph-name="Yacute" unicode="&#xdd;" horiz-adv-x="1067" 
d="M655 856l295 590h391l-600 -975l-108 -471h-348l116 500l-137 946h342zM664 1544l190 254h340l-281 -254h-249z" />
    <glyph glyph-name="Thorn" unicode="&#xde;" horiz-adv-x="1067" 
d="M45 0l334 1448l352 8l-57 -250h192q27 0 44.5 -0.5t53 -5t60 -12.5t55 -25t49.5 -40.5t32.5 -61t13.5 -84.5q0 -55 -15 -119l-47 -211q-27 -126 -74 -201q-35 -51 -102 -80.5t-199 -29.5h-266l-76 -336h-350zM741 956h-125l-84 -358h138q27 0 44 3.5t37.5 22t34.5 54.5
q45 152 45 209q0 59 -61 67q-6 1 -29 2z" />
    <glyph glyph-name="germandbls" unicode="&#xdf;" horiz-adv-x="1067" 
d="M37 0l260 1122q11 50 22.5 86.5t29.5 75t41 65.5t56.5 52t77 40t102 23.5t130.5 8.5q79 0 147.5 -12.5t127 -39t92.5 -75.5t34 -115q0 -71 -27 -174q-29 -126 -66 -180.5t-126 -73.5q-2 -1 -14 -3t-17 -3l33 -11q57 -21 89 -62.5t32 -100.5q0 -50 -38 -216.5t-67 -240.5
q-40 -95 -120.5 -136.5t-208.5 -41.5q-69 0 -209 12l41 176q81 -6 82 -6q23 0 39.5 3t29.5 14.5t20.5 20.5t16 35t13 43.5t14.5 59.5l45 195q2 12 5 29t5 28t4 20q8 61 -26.5 82t-110.5 23l45 201q68 -2 99.5 4t52.5 33q21 26 38 105t17 114q0 14 -2.5 24t-11.5 22.5
t-30 19.5t-54 7q-57 0 -83.5 -29t-41.5 -102l-260 -1122h-328z" />
    <glyph glyph-name="agrave" unicode="&#xe0;" horiz-adv-x="980" 
d="M1014 756l-146 -631q-6 -48 -6 -49q0 -23 5.5 -39t9.5 -20.5t16 -16.5h-373l29 115q-41 -35 -62 -51t-62.5 -42.5t-83 -38.5t-87.5 -12q-16 0 -32.5 1t-53 12t-62.5 29.5t-47.5 59.5t-21.5 97q0 62 32 173.5t78 164.5q48 55 142 90.5t407 126.5q25 107 25 129
q0 61 -88 61q-64 0 -88.5 -32.5t-50.5 -126.5h-312q37 150 68.5 209t103.5 96q111 57 295 57q77 0 140.5 -10.5t120.5 -36t89.5 -74.5t32.5 -118q0 -49 -18 -123zM582 250l67 264q-171 -53 -207 -82q-34 -28 -50.5 -88.5t-16.5 -91.5q0 -68 71 -68q61 0 136 66zM332 1495
h344l194 -254h-249z" />
    <glyph glyph-name="aacute" unicode="&#xe1;" horiz-adv-x="980" 
d="M1014 756l-146 -631q-6 -48 -6 -49q0 -23 5.5 -39t9.5 -20.5t16 -16.5h-373l29 115q-41 -35 -62 -51t-62.5 -42.5t-83 -38.5t-87.5 -12q-16 0 -32.5 1t-53 12t-62.5 29.5t-47.5 59.5t-21.5 97q0 62 32 173.5t78 164.5q48 55 142 90.5t407 126.5q25 107 25 129
q0 61 -88 61q-64 0 -88.5 -32.5t-50.5 -126.5h-312q37 150 68.5 209t103.5 96q111 57 295 57q77 0 140.5 -10.5t120.5 -36t89.5 -74.5t32.5 -118q0 -49 -18 -123zM582 250l67 264q-171 -53 -207 -82q-34 -28 -50.5 -88.5t-16.5 -91.5q0 -68 71 -68q61 0 136 66zM547 1239
l190 256h340l-282 -256h-248z" />
    <glyph glyph-name="acircumflex" unicode="&#xe2;" horiz-adv-x="980" 
d="M1014 756l-146 -631q-6 -48 -6 -49q0 -23 5.5 -39t9.5 -20.5t16 -16.5h-373l29 115q-41 -35 -62 -51t-62.5 -42.5t-83 -38.5t-87.5 -12q-16 0 -32.5 1t-53 12t-62.5 29.5t-47.5 59.5t-21.5 97q0 62 32 173.5t78 164.5q48 55 142 90.5t407 126.5q25 107 25 129
q0 61 -88 61q-64 0 -88.5 -32.5t-50.5 -126.5h-312q37 150 68.5 209t103.5 96q111 57 295 57q77 0 140.5 -10.5t120.5 -36t89.5 -74.5t32.5 -118q0 -49 -18 -123zM582 250l67 264q-171 -53 -207 -82q-34 -28 -50.5 -88.5t-16.5 -91.5q0 -68 71 -68q61 0 136 66zM635 1495
h258l145 -256h-215l-75 127l-138 -127h-250z" />
    <glyph glyph-name="atilde" unicode="&#xe3;" horiz-adv-x="980" 
d="M1014 756l-146 -631q-6 -48 -6 -49q0 -23 5.5 -39t9.5 -20.5t16 -16.5h-373l29 115q-41 -35 -62 -51t-62.5 -42.5t-83 -38.5t-87.5 -12q-16 0 -32.5 1t-53 12t-62.5 29.5t-47.5 59.5t-21.5 97q0 62 32 173.5t78 164.5q48 55 142 90.5t407 126.5q25 107 25 129
q0 61 -88 61q-64 0 -88.5 -32.5t-50.5 -126.5h-312q37 150 68.5 209t103.5 96q111 57 295 57q77 0 140.5 -10.5t120.5 -36t89.5 -74.5t32.5 -118q0 -49 -18 -123zM582 250l67 264q-171 -53 -207 -82q-34 -28 -50.5 -88.5t-16.5 -91.5q0 -68 71 -68q61 0 136 66zM498 1260
h-90q4 28 7 46t12 50.5t23.5 54t36.5 43.5t57 33.5t79 11.5q52 0 133 -29q101 -36 139 -36q27 0 46.5 10t26.5 20.5t15 28.5h92q-5 -29 -9 -47t-14.5 -51t-26 -55t-38 -45t-56.5 -34.5t-77 -11.5q-56 0 -135 31q-115 41 -139 41q-55 0 -82 -61z" />
    <glyph glyph-name="adieresis" unicode="&#xe4;" horiz-adv-x="980" 
d="M1014 756l-146 -631q-6 -48 -6 -49q0 -23 5.5 -39t9.5 -20.5t16 -16.5h-373l29 115q-41 -35 -62 -51t-62.5 -42.5t-83 -38.5t-87.5 -12q-16 0 -32.5 1t-53 12t-62.5 29.5t-47.5 59.5t-21.5 97q0 62 32 173.5t78 164.5q48 55 142 90.5t407 126.5q25 107 25 129
q0 61 -88 61q-64 0 -88.5 -32.5t-50.5 -126.5h-312q37 150 68.5 209t103.5 96q111 57 295 57q77 0 140.5 -10.5t120.5 -36t89.5 -74.5t32.5 -118q0 -49 -18 -123zM582 250l67 264q-171 -53 -207 -82q-34 -28 -50.5 -88.5t-16.5 -91.5q0 -68 71 -68q61 0 136 66zM780 1237
l58 256h286l-57 -256h-287zM387 1493h285l-60 -256h-282z" />
    <glyph glyph-name="aring" unicode="&#xe5;" horiz-adv-x="980" 
d="M1014 756l-146 -631q-6 -48 -6 -49q0 -23 5.5 -39t9.5 -20.5t16 -16.5h-373l29 115q-41 -35 -62 -51t-62.5 -42.5t-83 -38.5t-87.5 -12q-16 0 -32.5 1t-53 12t-62.5 29.5t-47.5 59.5t-21.5 97q0 62 32 173.5t78 164.5q48 55 142 90.5t407 126.5q25 107 25 129
q0 61 -88 61q-64 0 -88.5 -32.5t-50.5 -126.5h-312q37 150 68.5 209t103.5 96q111 57 295 57q77 0 140.5 -10.5t120.5 -36t89.5 -74.5t32.5 -118q0 -49 -18 -123zM582 250l67 264q-171 -53 -207 -82q-34 -28 -50.5 -88.5t-16.5 -91.5q0 -68 71 -68q61 0 136 66zM741 1202
q-91 0 -154 48.5t-63 129.5q3 86 59.5 131t149.5 45q94 0 154.5 -44t64.5 -134q0 -87 -64.5 -131.5t-146.5 -44.5zM834 1378q0 37 -21.5 67t-73.5 30t-75 -30.5t-23 -66.5t23 -67t75 -31q50 0 72.5 33t22.5 65z" />
    <glyph glyph-name="ae" unicode="&#xe6;" horiz-adv-x="1492" 
d="M485 748h-313q30 125 47.5 173t50.5 87q57 66 154.5 91t193.5 25q196 0 275 -112q86 112 289 112q61 0 115.5 -11.5t77 -21t36.5 -18.5q121 -68 121 -219q0 -83 -66 -367h-516q-37 -161 -37 -208q0 -80 82 -80q32 0 54.5 11.5t36.5 38.5t21.5 49t16.5 64h334
q-15 -56 -24.5 -85.5t-28.5 -75.5t-46 -80.5t-63 -61.5q-55 -40 -138 -63t-177 -23q-40 0 -80 5t-92.5 19t-95 47.5t-62.5 82.5q-15 -21 -26.5 -34.5t-42.5 -39t-64.5 -41t-90 -28.5t-122.5 -13q-25 0 -49 2t-66.5 14.5t-73 33.5t-54 64.5t-23.5 102.5q0 52 19 128t40 120
q17 36 39 63.5t43.5 44.5t62 34.5t70 27.5t93.5 29l272 82q24 98 24 121q0 39 -23.5 58t-60.5 19q-25 0 -43 -7t-29.5 -16t-23 -34.5t-18 -45t-19.5 -64.5zM993 680h199q1 7 10 44t14 62.5t5 38.5q0 80 -88 80q-68 0 -95 -55q-13 -30 -45 -170zM567 242l62 266
q-133 -45 -169 -63t-59 -58q-13 -26 -23.5 -65.5t-10.5 -63.5q0 -38 19.5 -58t55.5 -20q28 0 53.5 10.5t39 21.5t32.5 30z" />
    <glyph glyph-name="ccedilla" unicode="&#xe7;" horiz-adv-x="980" 
d="M645 383h330q-9 -41 -15.5 -68.5t-18 -64t-23.5 -61t-30 -54t-39 -49.5t-50.5 -41t-64 -34t-79.5 -23.5t-98 -14.5l-74 -88q23 -3 34 -5t36.5 -11t39.5 -22t26 -38t12 -59q0 -76 -62.5 -136t-183.5 -60q-39 0 -75 8.5t-55 16.5t-56 26v94q4 -1 22 -8t25.5 -9.5t22 -6.5
t26.5 -5.5t24 -1.5q55 0 80 31.5t25 62.5t-23.5 52.5t-58.5 21.5q-15 0 -39 -4q-1 7 -4 26.5t-4 26.5l96 97q-24 5 -39 8t-48 14t-55 23t-51 34.5t-46.5 49.5t-30 67t-12.5 88q0 64 31 210t59.5 255t33.5 121q17 52 43.5 94t54.5 70t65 48t69.5 31t73.5 17.5t71.5 8
t69.5 1.5q174 0 276.5 -72.5t102.5 -205.5q0 -58 -27 -156h-315q28 110 28 139q0 34 -21 54t-60 20q-32 0 -56 -10.5t-38.5 -32.5t-23 -44.5t-16.5 -55.5l-102 -439q-4 -24 -4 -36q0 -34 12 -52q22 -36 76 -36q27 0 47 9.5t32 22t23 41.5t16 50t15 65z" />
    <glyph glyph-name="egrave" unicode="&#xe8;" 
d="M649 354h334q-14 -57 -23 -88.5t-32.5 -80.5t-55.5 -83q-114 -131 -366 -131q-40 0 -83.5 4.5t-110.5 24.5t-111 55q-90 71 -90 211q0 99 54 328.5t85 302.5q13 32 29 58t49.5 59.5t76.5 55.5t112 38t155 16q48 0 91.5 -4t100.5 -20.5t97.5 -43.5t69 -78.5t28.5 -121.5
q0 -50 -19 -139q-6 -27 -53 -246h-524q-37 -146 -37 -201q0 -17 6 -32q23 -41 90 -41q60 0 83 33.5t42 113.5q1 7 2 10zM508 672h211q29 127 29 149q0 36 -17 56q-22 28 -78 28q-19 0 -33.5 -3t-27 -11.5t-21 -16t-17 -26.5t-13.5 -31.5t-11.5 -41.5t-10 -46.5t-11.5 -56.5z
M352 1495h344l195 -254h-250z" />
    <glyph glyph-name="eacute" unicode="&#xe9;" 
d="M649 354h334q-14 -57 -23 -88.5t-32.5 -80.5t-55.5 -83q-114 -131 -366 -131q-40 0 -83.5 4.5t-110.5 24.5t-111 55q-90 71 -90 211q0 99 54 328.5t85 302.5q13 32 29 58t49.5 59.5t76.5 55.5t112 38t155 16q48 0 91.5 -4t100.5 -20.5t97.5 -43.5t69 -78.5t28.5 -121.5
q0 -50 -19 -139q-6 -27 -53 -246h-524q-37 -146 -37 -201q0 -17 6 -32q23 -41 90 -41q60 0 83 33.5t42 113.5q1 7 2 10zM508 672h211q29 127 29 149q0 36 -17 56q-22 28 -78 28q-19 0 -33.5 -3t-27 -11.5t-21 -16t-17 -26.5t-13.5 -31.5t-11.5 -41.5t-10 -46.5t-11.5 -56.5z
M567 1239l191 256h340l-283 -256h-248z" />
    <glyph glyph-name="ecircumflex" unicode="&#xea;" 
d="M649 354h334q-14 -57 -23 -88.5t-32.5 -80.5t-55.5 -83q-114 -131 -366 -131q-40 0 -83.5 4.5t-110.5 24.5t-111 55q-90 71 -90 211q0 99 54 328.5t85 302.5q13 32 29 58t49.5 59.5t76.5 55.5t112 38t155 16q48 0 91.5 -4t100.5 -20.5t97.5 -43.5t69 -78.5t28.5 -121.5
q0 -50 -19 -139q-6 -27 -53 -246h-524q-37 -146 -37 -201q0 -17 6 -32q23 -41 90 -41q60 0 83 33.5t42 113.5q1 7 2 10zM508 672h211q29 127 29 149q0 36 -17 56q-22 28 -78 28q-19 0 -33.5 -3t-27 -11.5t-21 -16t-17 -26.5t-13.5 -31.5t-11.5 -41.5t-10 -46.5t-11.5 -56.5z
M655 1495h258l146 -256h-215l-76 127l-137 -127h-250z" />
    <glyph glyph-name="edieresis" unicode="&#xeb;" 
d="M649 354h334q-14 -57 -23 -88.5t-32.5 -80.5t-55.5 -83q-114 -131 -366 -131q-40 0 -83.5 4.5t-110.5 24.5t-111 55q-90 71 -90 211q0 99 54 328.5t85 302.5q13 32 29 58t49.5 59.5t76.5 55.5t112 38t155 16q48 0 91.5 -4t100.5 -20.5t97.5 -43.5t69 -78.5t28.5 -121.5
q0 -50 -19 -139q-6 -27 -53 -246h-524q-37 -146 -37 -201q0 -17 6 -32q23 -41 90 -41q60 0 83 33.5t42 113.5q1 7 2 10zM508 672h211q29 127 29 149q0 36 -17 56q-22 28 -78 28q-19 0 -33.5 -3t-27 -11.5t-21 -16t-17 -26.5t-13.5 -31.5t-11.5 -41.5t-10 -46.5t-11.5 -56.5z
M811 1237l57 256h287l-57 -256h-287zM418 1493h284l-59 -256h-283z" />
    <glyph glyph-name="igrave" unicode="&#xec;" horiz-adv-x="512" 
d="M39 0l252 1098h327l-253 -1098h-326zM96 1495h344l195 -254h-250z" />
    <glyph glyph-name="iacute" unicode="&#xed;" horiz-adv-x="512" 
d="M39 0l252 1098h327l-253 -1098h-326zM311 1239l191 256h340l-283 -256h-248z" />
    <glyph glyph-name="icircumflex" unicode="&#xee;" horiz-adv-x="512" 
d="M39 0l252 1098h327l-253 -1098h-326zM399 1495h258l146 -256h-215l-76 127l-137 -127h-250z" />
    <glyph glyph-name="idieresis" unicode="&#xef;" horiz-adv-x="512" 
d="M39 0l252 1098h327l-253 -1098h-326zM555 1237l57 256h287l-57 -256h-287zM162 1493h284l-59 -256h-283z" />
    <glyph glyph-name="eth" unicode="&#xf0;" 
d="M1118 1341l-117 -34q76 -136 76 -314q0 -112 -30.5 -303t-85.5 -381q-13 -44 -20 -66.5t-25.5 -64t-37.5 -65t-53.5 -53.5t-75.5 -46t-101.5 -27.5t-133.5 -11.5q-405 0 -405 295q0 78 44 276.5t66 264.5q7 24 13.5 42t22.5 54t34 62.5t48.5 58.5t65 52.5t84 35
t105.5 14.5q30 0 60.5 -4.5t73.5 -24t67 -52.5q-3 49 -14 87.5t-42 98.5l-243 -70l-45 121l223 64q-46 66 -49 69l256 80q2 -3 27 -36t28 -40l137 41zM639 344l102 438q7 25 7 43q0 38 -26 60t-65 22q-26 0 -46 -9.5t-31 -19.5t-20.5 -31.5t-12 -31.5t-8.5 -33l-101 -438
q-10 -30 -10 -63q0 -36 22 -60t68 -24q31 0 52.5 11t34.5 35t20 45t14 56z" />
    <glyph glyph-name="ntilde" unicode="&#xf1;" 
d="M1069 817l-188 -817h-326l176 772q6 25 6 51q0 27 -10 44.5t-25.5 24t-23.5 8t-16 1.5q-33 0 -57.5 -15t-37.5 -39.5t-19 -41.5t-9 -35l-179 -770h-319l252 1098h321l-26 -109q127 133 291 133q23 0 45 -3t52.5 -15.5t52.5 -32.5t38 -58t16 -89q0 -49 -14 -107zM518 1260
h-90q4 28 7 46t12 50.5t23.5 54t36.5 43.5t57 33.5t79 11.5q52 0 133 -29q101 -36 139 -36q27 0 46.5 10t27 21t15.5 28h92q-5 -28 -9.5 -46.5t-14.5 -51.5t-25.5 -55t-38.5 -45t-57 -34.5t-77 -11.5q-56 0 -135 31q-115 41 -139 41q-55 0 -82 -61z" />
    <glyph glyph-name="ograve" unicode="&#xf2;" 
d="M641 1126q48 0 89 -3.5t92.5 -13.5t91.5 -31t75.5 -53t54.5 -83t19 -117q0 -78 -45 -281.5t-74 -291.5q-11 -31 -19 -52t-26 -53t-37.5 -53t-52.5 -45.5t-73 -39t-97 -24.5t-125 -10q-403 0 -403 297q0 77 43.5 272t66.5 267q10 32 18 55t25.5 58t37.5 60.5t52.5 54
t71.5 46t94.5 29.5t120.5 12zM641 344l98 438q6 21 6 43q1 38 -24 60t-64 22q-25 0 -45 -9t-31 -20.5t-20 -31t-12.5 -32.5t-7.5 -32l-103 -438q-8 -36 -8 -63q0 -36 22 -60t66 -24q32 0 53.5 11t35 35.5t19.5 43.5t15 57zM352 1495h344l195 -254h-250z" />
    <glyph glyph-name="oacute" unicode="&#xf3;" 
d="M641 1126q48 0 89 -3.5t92.5 -13.5t91.5 -31t75.5 -53t54.5 -83t19 -117q0 -78 -45 -281.5t-74 -291.5q-11 -31 -19 -52t-26 -53t-37.5 -53t-52.5 -45.5t-73 -39t-97 -24.5t-125 -10q-403 0 -403 297q0 77 43.5 272t66.5 267q10 32 18 55t25.5 58t37.5 60.5t52.5 54
t71.5 46t94.5 29.5t120.5 12zM641 344l98 438q6 21 6 43q1 38 -24 60t-64 22q-25 0 -45 -9t-31 -20.5t-20 -31t-12.5 -32.5t-7.5 -32l-103 -438q-8 -36 -8 -63q0 -36 22 -60t66 -24q32 0 53.5 11t35 35.5t19.5 43.5t15 57zM567 1239l191 256h340l-283 -256h-248z" />
    <glyph glyph-name="ocircumflex" unicode="&#xf4;" 
d="M641 1126q48 0 89 -3.5t92.5 -13.5t91.5 -31t75.5 -53t54.5 -83t19 -117q0 -78 -45 -281.5t-74 -291.5q-11 -31 -19 -52t-26 -53t-37.5 -53t-52.5 -45.5t-73 -39t-97 -24.5t-125 -10q-403 0 -403 297q0 77 43.5 272t66.5 267q10 32 18 55t25.5 58t37.5 60.5t52.5 54
t71.5 46t94.5 29.5t120.5 12zM641 344l98 438q6 21 6 43q1 38 -24 60t-64 22q-25 0 -45 -9t-31 -20.5t-20 -31t-12.5 -32.5t-7.5 -32l-103 -438q-8 -36 -8 -63q0 -36 22 -60t66 -24q32 0 53.5 11t35 35.5t19.5 43.5t15 57zM655 1495h258l146 -256h-215l-76 127l-137 -127
h-250z" />
    <glyph glyph-name="otilde" unicode="&#xf5;" 
d="M641 1126q48 0 89 -3.5t92.5 -13.5t91.5 -31t75.5 -53t54.5 -83t19 -117q0 -78 -45 -281.5t-74 -291.5q-11 -31 -19 -52t-26 -53t-37.5 -53t-52.5 -45.5t-73 -39t-97 -24.5t-125 -10q-403 0 -403 297q0 77 43.5 272t66.5 267q10 32 18 55t25.5 58t37.5 60.5t52.5 54
t71.5 46t94.5 29.5t120.5 12zM641 344l98 438q6 21 6 43q1 38 -24 60t-64 22q-25 0 -45 -9t-31 -20.5t-20 -31t-12.5 -32.5t-7.5 -32l-103 -438q-8 -36 -8 -63q0 -36 22 -60t66 -24q32 0 53.5 11t35 35.5t19.5 43.5t15 57zM518 1260h-90q4 28 7 46t12 50.5t23.5 54
t36.5 43.5t57 33.5t79 11.5q52 0 133 -29q101 -36 139 -36q27 0 46.5 10t27 21t15.5 28h92q-5 -28 -9.5 -46.5t-14.5 -51.5t-25.5 -55t-38.5 -45t-57 -34.5t-77 -11.5q-56 0 -135 31q-115 41 -139 41q-55 0 -82 -61z" />
    <glyph glyph-name="odieresis" unicode="&#xf6;" 
d="M641 1126q48 0 89 -3.5t92.5 -13.5t91.5 -31t75.5 -53t54.5 -83t19 -117q0 -78 -45 -281.5t-74 -291.5q-11 -31 -19 -52t-26 -53t-37.5 -53t-52.5 -45.5t-73 -39t-97 -24.5t-125 -10q-403 0 -403 297q0 77 43.5 272t66.5 267q10 32 18 55t25.5 58t37.5 60.5t52.5 54
t71.5 46t94.5 29.5t120.5 12zM641 344l98 438q6 21 6 43q1 38 -24 60t-64 22q-25 0 -45 -9t-31 -20.5t-20 -31t-12.5 -32.5t-7.5 -32l-103 -438q-8 -36 -8 -63q0 -36 22 -60t66 -24q32 0 53.5 11t35 35.5t19.5 43.5t15 57zM813 1237l57 256h287l-57 -256h-287zM420 1493h285
l-60 -256h-283z" />
    <glyph glyph-name="divide" unicode="&#xf7;" horiz-adv-x="1366" 
d="M924 225q0 -65 -45.5 -114.5t-120.5 -49.5q-67 0 -115.5 46.5t-48.5 117.5q0 67 46.5 116.5t119.5 49.5q70 0 117 -48t47 -118zM924 958q0 -64 -45.5 -113.5t-120.5 -49.5q-68 0 -116 46t-48 117q0 67 46.5 116.5t119.5 49.5q70 0 117 -48t47 -118zM1442 723v-260h-1364
v260h1364z" />
    <glyph glyph-name="oslash" unicode="&#xf8;" 
d="M934 1063l90 104l76 -61l-86 -102q19 -28 28 -44.5t17 -48t8 -73.5q0 -86 -40.5 -261t-78.5 -294q-23 -78 -52 -130t-78 -95.5t-125 -64t-183 -20.5q-195 0 -307 78l-82 -96l-74 63l90 107q-33 60 -33 143q0 80 40 251.5t77 283.5q56 172 150 246.5t276 74.5
q180 0 287 -61zM522 780l-102 -327l342 407q-8 16 -14.5 25.5t-29 22t-54.5 12.5q-102 0 -142 -140zM760 705l-367 -433q3 -16 6 -26.5t13.5 -29t33 -28.5t56.5 -10q46 0 78.5 26t56.5 85q14 33 45 137t55 192t23 87z" />
    <glyph glyph-name="ugrave" unicode="&#xf9;" 
d="M287 1098h331l-165 -717q-19 -81 -19 -105q0 -39 23 -59t55 -20q31 0 54.5 16t38.5 46.5t22.5 54.5t15.5 59l166 725h330l-254 -1098h-328l25 115q-26 -28 -46 -45t-56 -41t-80.5 -36.5t-96.5 -12.5q-27 0 -53 4t-56.5 17t-53 33.5t-37.5 57.5t-15 86q0 56 16 123z
M352 1495h344l195 -254h-250z" />
    <glyph glyph-name="uacute" unicode="&#xfa;" 
d="M287 1098h331l-165 -717q-19 -81 -19 -105q0 -39 23 -59t55 -20q31 0 54.5 16t38.5 46.5t22.5 54.5t15.5 59l166 725h330l-254 -1098h-328l25 115q-26 -28 -46 -45t-56 -41t-80.5 -36.5t-96.5 -12.5q-27 0 -53 4t-56.5 17t-53 33.5t-37.5 57.5t-15 86q0 56 16 123z
M567 1239l191 256h340l-283 -256h-248z" />
    <glyph glyph-name="ucircumflex" unicode="&#xfb;" 
d="M287 1098h331l-165 -717q-19 -81 -19 -105q0 -39 23 -59t55 -20q31 0 54.5 16t38.5 46.5t22.5 54.5t15.5 59l166 725h330l-254 -1098h-328l25 115q-26 -28 -46 -45t-56 -41t-80.5 -36.5t-96.5 -12.5q-27 0 -53 4t-56.5 17t-53 33.5t-37.5 57.5t-15 86q0 56 16 123z
M655 1495h258l146 -256h-215l-76 127l-137 -127h-250z" />
    <glyph glyph-name="udieresis" unicode="&#xfc;" 
d="M287 1098h331l-165 -717q-19 -81 -19 -105q0 -39 23 -59t55 -20q31 0 54.5 16t38.5 46.5t22.5 54.5t15.5 59l166 725h330l-254 -1098h-328l25 115q-26 -28 -46 -45t-56 -41t-80.5 -36.5t-96.5 -12.5q-27 0 -53 4t-56.5 17t-53 33.5t-37.5 57.5t-15 86q0 56 16 123z
M827 1237l58 256h286l-57 -256h-287zM434 1493h285l-60 -256h-282z" />
    <glyph glyph-name="yacute" unicode="&#xfd;" horiz-adv-x="894" 
d="M195 1096h325l-90 -965q18 82 26.5 113t32.5 100l256 752h355l-445 -1014q-37 -84 -63.5 -139.5t-58 -109.5t-57 -85.5t-61.5 -61t-71 -44t-85 -25.5t-104 -14.5t-128 -3.5q-23 0 -72 1t-74 1l45 241q44 -3 78 -1t58.5 2t42 8.5t28 16.5t17 26.5t9 39t3.5 54.5zM506 1239
l190 256h340l-282 -256h-248z" />
    <glyph glyph-name="thorn" unicode="&#xfe;" 
d="M1073 770l-106 -463q-38 -166 -113.5 -249t-206.5 -83q-93 0 -155.5 41t-81.5 109q-2 4 -3 17q-1 9 -2 10l-2 -5l-124 -542h-330l426 1841h330l-119 -490q23 30 37 46t42.5 42t54.5 40t65 25t83 11q97 0 159.5 -56.5t62.5 -164.5q0 -54 -17 -129zM639 307l98 428
q17 74 17 92q0 40 -23 62t-61 22q-92 0 -113 -100l-104 -453q-13 -54 -13 -79q0 -42 25.5 -64t60.5 -22q87 0 113 114z" />
    <glyph glyph-name="ydieresis" unicode="&#xff;" horiz-adv-x="894" 
d="M195 1096h325l-90 -965q18 82 26.5 113t32.5 100l256 752h355l-445 -1014q-37 -84 -63.5 -139.5t-58 -109.5t-57 -85.5t-61.5 -61t-71 -44t-85 -25.5t-104 -14.5t-128 -3.5q-23 0 -72 1t-74 1l45 241q44 -3 78 -1t58.5 2t42 8.5t28 16.5t17 26.5t9 39t3.5 54.5zM750 1237
l57 256h287l-58 -256h-286zM356 1493h285l-59 -256h-283z" />
    <glyph glyph-name="dotlessi" unicode="&#x131;" horiz-adv-x="512" 
d="M39 0l252 1098h327l-253 -1098h-326z" />
    <glyph glyph-name="Lslash" unicode="&#x141;" horiz-adv-x="811" 
d="M82 625l129 92l168 729h350l-98 -428l260 186l-66 -284l-260 -187l-112 -487h370l-57 -246h-721l100 432l-129 -92z" />
    <glyph glyph-name="lslash" unicode="&#x142;" horiz-adv-x="512" 
d="M121 721l100 67l152 658h327l-92 -399l99 65l-58 -248l-98 -65l-184 -799h-328l125 539l-98 -68z" />
    <glyph glyph-name="OE" unicode="&#x152;" horiz-adv-x="1449" 
d="M621 0l20 88q-19 -21 -28.5 -30.5t-34.5 -28.5t-48 -28.5t-60 -17.5t-81 -8q-283 0 -283 269q0 147 162 772q20 75 35.5 126t36 103t41.5 84.5t49 62.5t62.5 46t78 25.5t97.5 9.5q59 0 104 -8.5t78.5 -27t48 -29.5t39.5 -34l16 72h717l-57 -250h-367l-76 -330h345
l-58 -252h-346l-82 -362h397l-57 -252h-749zM752 561l106 463q19 97 19 123q0 47 -28 68.5t-73 21.5q-73 0 -102.5 -58.5t-85.5 -285.5q-37 -149 -81 -346.5t-44 -253.5q0 -46 28 -67t62 -21q82 0 114.5 65t84.5 291z" />
    <glyph glyph-name="oe" unicode="&#x153;" horiz-adv-x="1536" 
d="M1176 356h331q-15 -60 -25.5 -94t-34 -82t-54.5 -82q-105 -123 -342 -123q-96 0 -165 26t-110 93q-22 -22 -39.5 -36t-56.5 -37t-95.5 -35.5t-125.5 -12.5q-139 0 -236 62q-112 73 -112 227q0 92 49 303.5t73 290.5q7 23 13 38.5t22.5 46.5t35 53t52 49t73.5 44t98.5 29
t127.5 12q66 0 117 -11.5t83 -33t46 -35t31 -34.5q56 48 100 69q90 41 217 41q151 0 246.5 -66.5t95.5 -195.5q0 -46 -11 -102t-60 -277h-516q-43 -188 -43 -209q0 -35 23.5 -54t59.5 -19q28 0 49 9t33 20t22.5 35.5t15 40.5t12.5 50zM1044 676h203q29 123 29 153
q0 26 -9.5 44t-25.5 25t-27 9t-22 2q-29 0 -51 -11.5t-35.5 -27.5t-25 -49t-18 -59.5t-16.5 -75.5q-1 -7 -2 -10zM629 311l102 434q12 66 12 84q0 76 -88 76q-56 0 -83 -40t-44 -120l-94 -403q-8 -35 -8 -63q0 -40 25.5 -60t60.5 -20q32 0 55 11t35.5 31.5t17.5 34.5t9 35z
" />
    <glyph glyph-name="Scaron" unicode="&#x160;" horiz-adv-x="1067" 
d="M121 498h348q-39 -149 -39 -187q0 -33 13 -54t34 -28.5t33 -9.5t25 -2q70 0 104 45q20 26 34.5 82.5t14.5 91.5t-16.5 60.5t-59.5 60.5q-2 2 -137 105q-50 37 -72 54t-52.5 44t-42 43t-24.5 41t-16.5 50.5t-3.5 59.5q0 82 41.5 207t87.5 187q20 25 36.5 40t55.5 37.5
t104.5 33.5t155.5 11q81 0 145.5 -8t119.5 -27.5t92 -50t57.5 -77t20.5 -107.5q0 -62 -37 -213h-332q31 133 31 156q0 45 -28.5 63.5t-63.5 18.5q-72 0 -97 -49q-19 -27 -31 -79t-12 -81q0 -47 23.5 -73.5t120.5 -98.5q138 -104 197 -159t79.5 -97.5t20.5 -106.5
q0 -33 -11 -86q-20 -113 -52.5 -187.5t-91 -129t-148.5 -79t-220 -24.5q-450 0 -450 283q0 15 1 31t4 35.5l5 32.5t7.5 36.5t8 33t9 37.5t8.5 34zM547 1798h215l76 -125l137 125h248l-271 -254h-258z" />
    <glyph glyph-name="scaron" unicode="&#x161;" horiz-adv-x="937" 
d="M80 375h315q-22 -73 -22 -109q0 -69 82 -69q36 0 59 14q47 33 47 111q0 28 -9.5 44t-31.5 33q-14 12 -65 50t-97 71.5t-47 34.5q-60 47 -90.5 95t-30.5 108q0 44 18 105t38 98q44 78 142.5 119.5t234.5 41.5q110 0 194.5 -27.5t135.5 -85t51 -139.5q0 -33 -17 -112h-309
q18 60 18 88q0 5 -0.5 10t-5.5 15t-12.5 17t-24 13t-39.5 6q-27 0 -47.5 -11t-29.5 -24.5t-14.5 -32t-6 -25.5t-0.5 -13q0 -27 14.5 -45t49.5 -45q1 -1 27 -19t54 -38.5t33 -24.5q52 -36 76.5 -54t56 -45.5t44.5 -49t22.5 -51t9.5 -64.5q0 -57 -23 -134.5t-61 -124.5
q-45 -56 -134.5 -92.5t-223.5 -36.5q-159 0 -254 43q-78 35 -115 88t-37 132q0 45 25 135zM408 1495h215l77 -125l136 125h249l-272 -254h-260z" />
    <glyph glyph-name="Ydieresis" unicode="&#x178;" horiz-adv-x="1067" 
d="M655 856l295 590h391l-600 -975l-108 -471h-348l116 500l-137 946h342zM895 1538l59 256h287l-61 -256h-285zM502 1794h284l-59 -256h-285z" />
    <glyph glyph-name="Zcaron" unicode="&#x17d;" horiz-adv-x="980" 
d="M252 1194l57 254h871l-62 -268l-721 -914h510l-61 -266h-899l61 266l729 928h-485zM494 1798h215l75 -125l138 125h247l-270 -254h-258z" />
    <glyph glyph-name="zcaron" unicode="&#x17e;" horiz-adv-x="854" 
d="M193 893l47 205h757l-47 -201l-542 -676h421l-51 -221h-815l47 209l553 684h-370zM346 1495h215l78 -125l135 125h250l-272 -254h-260z" />
    <glyph glyph-name="florin" unicode="&#x192;" horiz-adv-x="681" 
d="M373 1098l26 106q28 110 51 148q42 71 151 91q58 11 142 11q99 0 193 -6l-47 -201q-110 5 -139 -16q-13 -10 -22 -34t-28 -99h144l-47 -197h-144l-237 -1012q-9 -37 -15.5 -60t-17 -50.5t-22.5 -43.5t-30 -34t-41 -27.5t-54.5 -18t-71 -12t-90.5 -3.5q-100 0 -195 6
l47 200q73 -2 102 2.5t42.5 19.5t25.5 56q74 259 232 977h-133l47 197h131z" />
    <glyph glyph-name="circumflex" unicode="&#x2c6;" horiz-adv-x="512" 
d="M193 1495h258l145 -256h-215l-76 127l-137 -127h-250z" />
    <glyph glyph-name="caron" unicode="&#x2c7;" horiz-adv-x="512" 
d="M-82 1495h215l78 -125l135 125h250l-272 -254h-261z" />
    <glyph glyph-name="breve" unicode="&#x2d8;" horiz-adv-x="512" 
d="M412 1489h143q-6 -31 -20 -62.5t-41 -66t-63 -61t-91 -43.5t-119 -17q-115 0 -188.5 59.5t-73.5 141.5q0 1 6 49h139q1 -15 2 -23t8 -22.5t19.5 -22t37.5 -14t60 -6.5q89 0 125.5 21t55.5 67z" />
    <glyph glyph-name="dotaccent" unicode="&#x2d9;" horiz-adv-x="512" 
d="M143 1493h283l-57 -256h-285z" />
    <glyph glyph-name="ring" unicode="&#x2da;" horiz-adv-x="512" 
d="M258 1202q-91 0 -154 48.5t-63 129.5q3 86 59.5 131t149.5 45q94 0 154.5 -44t64.5 -134q0 -87 -64.5 -131.5t-146.5 -44.5zM350 1378q0 37 -21 67t-73 30t-75 -30.5t-23 -66.5t23 -67t75 -31q50 0 72 33t22 65z" />
    <glyph glyph-name="ogonek" unicode="&#x2db;" horiz-adv-x="512" 
d="M184 0h205q-32 -36 -46 -53t-28 -41.5t-14 -42.5q0 -43 84 -43q25 0 61 4l-51 -213q-81 -6 -90 -6q-239 0 -239 153q0 54 23 98t95 144z" />
    <glyph glyph-name="tilde" unicode="&#x2dc;" horiz-adv-x="512" 
d="M12 1260h-90q4 28 7 46t12 50.5t23.5 54t36.5 43.5t57 33.5t79 11.5q52 0 133 -29q101 -36 140 -36q27 0 46.5 10t26.5 20.5t15 28.5h92q-5 -29 -9 -47t-14.5 -51t-26 -55t-38 -45t-56.5 -34.5t-77 -11.5q-57 0 -136 31q-115 41 -139 41q-55 0 -82 -61z" />
    <glyph glyph-name="hungarumlaut" unicode="&#x2dd;" horiz-adv-x="512" 
d="M29 1241h-236l193 244h325zM432 1241h-239l192 244h334z" />
    <glyph glyph-name="endash" unicode="&#x2013;" horiz-adv-x="1067" 
d="M150 604l53 236h927l-53 -236h-927z" />
    <glyph glyph-name="emdash" unicode="&#x2014;" horiz-adv-x="1193" 
d="M150 604l55 234h1050l-53 -234h-1052z" />
    <glyph glyph-name="quoteleft" unicode="&#x2018;" horiz-adv-x="512" 
d="M551 1446h131l-186 -313h114l-73 -316h-308l74 316z" />
    <glyph glyph-name="quoteright" unicode="&#x2019;" horiz-adv-x="512" 
d="M309 1135l72 313h309l-72 -313l-249 -318h-133l186 318h-113z" />
    <glyph glyph-name="quotesinglbase" unicode="&#x201a;" horiz-adv-x="512" 
d="M37 0l74 313h309l-74 -313l-250 -317h-131l187 317h-115z" />
    <glyph glyph-name="quotedblleft" unicode="&#x201c;" horiz-adv-x="894" 
d="M705 1126l243 322h137l-186 -322h113l-72 -307h-305zM293 1126l237 322h142l-183 -322h109l-72 -307h-305z" />
    <glyph glyph-name="quotedblright" unicode="&#x201d;" horiz-adv-x="894" 
d="M788 1448h306l-72 -311l-238 -318h-141l184 318h-110zM303 1137l72 311h307l-72 -311l-245 -318h-136l187 318h-113z" />
    <glyph glyph-name="quotedblbase" unicode="&#x201e;" horiz-adv-x="894" 
d="M20 0l72 313h305l-71 -313l-242 -315h-135l184 315h-113zM434 0l74 313h303l-72 -313l-237 -315h-140l181 315h-109z" />
    <glyph glyph-name="dagger" unicode="&#x2020;" horiz-adv-x="894" 
d="M471 1098l80 350h319l-79 -350h258l-60 -264h-260l-192 -834h-328l201 834h-252l59 264h254z" />
    <glyph glyph-name="daggerdbl" unicode="&#x2021;" horiz-adv-x="937" 
d="M569 0h-309l76 319h-264l59 248h262l86 363h-262l57 250h263l63 266h309l-63 -266h252l-58 -250h-249l-89 -363h252l-57 -248h-250z" />
    <glyph glyph-name="bullet" unicode="&#x2022;" horiz-adv-x="681" 
d="M766 721q0 -135 -86.5 -226.5t-224.5 -91.5q-97 0 -173 48t-113.5 119.5t-37.5 150.5q0 130 93 224.5t229 94.5q127 0 220 -86.5t93 -232.5z" />
    <glyph glyph-name="ellipsis" unicode="&#x2026;" horiz-adv-x="2048" 
d="M131 0l72 313h305l-72 -313h-305zM813 0l72 313h305l-72 -313h-305zM1495 0l72 313h307l-74 -313h-305z" />
    <glyph glyph-name="perthousand" unicode="&#x2030;" horiz-adv-x="2304" 
d="M825 1147l-75 -318q-10 -39 -15 -59.5t-15 -53t-18.5 -49.5t-22.5 -42t-29 -37.5t-36 -28t-46 -22.5t-57.5 -12t-70.5 -5q-129 0 -195.5 49t-66.5 144q0 60 27 166l67 295q9 38 14.5 58t16 52.5t22 50.5t29 42t40 37t52.5 26t69 18.5t87 5.5q116 0 178 -50t62 -144
q0 -40 -17 -123zM483 1196l-88 -373q-16 -67 -16 -88q0 -51 65 -51q39 0 56.5 18t29.5 66l95 408q14 66 14 77q0 52 -53 52t-70 -20.5t-33 -88.5zM479 0l713 1446h162l-713 -1446h-162zM1640 604l-75 -315q-34 -138 -60 -187q-49 -93 -159 -114q-40 -8 -91 -8
q-262 0 -262 192q0 60 27 166l67 293q7 30 11 46t12 43.5t15.5 42.5t19 37.5t24 35t30.5 28.5t39.5 25t48 17.5t59.5 12t71 3.5q115 0 177.5 -50.5t62.5 -144.5q0 -36 -17 -123zM1298 653l-88 -372q-16 -61 -16 -86q0 -52 66 -52q39 0 56.5 18t29.5 66l94 406q14 67 14 80
q0 49 -53 49t-70 -20.5t-33 -88.5zM2322 604l-75 -315q-34 -138 -60 -187q-49 -93 -159 -114q-40 -8 -91 -8q-262 0 -262 192q0 60 27 166l67 293q7 30 11 46t12 43.5t15.5 42.5t19 37.5t24 35t30.5 28.5t39.5 25t48 17.5t59.5 12t71 3.5q115 0 177.5 -50.5t62.5 -144.5
q0 -36 -17 -123zM1980 653l-88 -372q-16 -61 -16 -86q0 -52 66 -52q39 0 56.5 18t29.5 66l94 406q14 67 14 80q0 49 -53 49t-70 -20.5t-33 -88.5z" />
    <glyph glyph-name="guilsinglleft" unicode="&#x2039;" horiz-adv-x="468" 
d="M96 451l64 262l389 270l-70 -299l-172 -113l121 -120l-61 -256z" />
    <glyph glyph-name="guilsinglright" unicode="&#x203a;" horiz-adv-x="468" 
d="M453 465l-390 -270l68 299l172 114l-117 117l60 258l268 -258z" />
    <glyph glyph-name="fraction" unicode="&#x2044;" horiz-adv-x="256" 
d="M-205 0l713 1446h162l-713 -1446h-162z" />
    <glyph glyph-name="fraction" unicode="&#x2215;" horiz-adv-x="256" 
d="M-205 0l713 1446h162l-713 -1446h-162z" />
    <glyph glyph-name="Euro" unicode="&#x20ac;" horiz-adv-x="1067" 
d="M1247 1403l-63 -268q-54 84 -221 84q-228 0 -320 -248h442l-104 -189h-403q-8 -30 -15 -55q-9 -49 -12 -63h362l-104 -191h-279q-21 -244 205 -244q155 0 258 80l-61 -268q-38 -25 -118 -44.5t-187 -19.5q-429 0 -387 496h-156l106 191h74q3 21 12 63q12 40 17 55h-137
l104 189h92q192 502 621 502q98 0 170.5 -21.5t103.5 -48.5z" />
    <glyph glyph-name="trademark" unicode="&#x2122;" horiz-adv-x="1409" 
d="M1569 1446v-680h-168l8 362q0 58 12 140q-4 -14 -13 -54t-15 -57l-115 -391h-154l-120 393q-7 15 -29 105q12 -90 14 -136l8 -362h-166v680h218l155 -492l146 492h219zM571 1309v-543h-172v543h-209v137h586v-137h-205z" />
    <glyph glyph-name="minus" unicode="&#x2212;" horiz-adv-x="1366" 
d="M1442 725v-260h-1366v260h1366z" />
    <glyph glyph-name="fi" unicode="&#xfb01;" horiz-adv-x="1150" 
d="M354 1098l25 106q28 111 51 149q43 71 152 91q56 10 139 10q95 0 194 -6l-47 -201q-88 2 -116 -5.5t-41 -37.5q-11 -24 -29 -106h143l-47 -197h-143l-207 -901h-328l207 901h-131l45 197h133zM1012 1446h325l-57 -246h-326zM678 0l254 1098h325l-253 -1098h-326z" />
    <glyph glyph-name="fl" unicode="&#xfb02;" horiz-adv-x="1150" 
d="M354 1098l25 106q28 111 51 149q43 71 152 91q56 10 139 10q95 0 194 -6l-47 -201q-88 2 -116 -5.5t-41 -37.5q-11 -24 -29 -106h143l-47 -197h-143l-207 -901h-328l207 901h-131l45 197h133zM680 0l334 1446h327l-333 -1446h-328z" />
    </font>
</defs>
</svg>
